<?xml version="1.0" encoding="utf-8"?>
<!-- Generator: Adobe Illustrator 16.0.0, SVG Export Plug-In . SVG Version: 6.00 Build 0)  -->
<!DOCTYPE svg PUBLIC "-//W3C//DTD SVG 1.1//EN" "http://www.w3.org/Graphics/SVG/1.1/DTD/svg11.dtd">
<svg version="1.1" id="Layer_1" xmlns="http://www.w3.org/2000/svg" xmlns:xlink="http://www.w3.org/1999/xlink" x="0px" y="0px"
	 width="480px" height="480px" viewBox="0 0 480 480" enable-background="new 0 0 480 480" xml:space="preserve">
<g>
	<g>
		<g>
			<path fill="#FFFFFF" d="M46.812,265.145c-24.664,7.174-7.737,51.105,6.902,65.465c16.732,16.409,76.366,28.007,78.556-8.45
				c-8.204,2.673-7.568,14.911-4.603,24.313c6.803,21.564,30.057,28.915,48.124,30.553c38.58,3.501,92.001-11.278,84.744-49.383
				c13.414,66.407,152.619,45.11,128.827-10.162c27.616,20.738,69.2-27.093,68.65-54.258c-0.662-32.677-6.838-75.962-46.166-68.268
				c-0.853-42.306-15.829-63.327-32.637-74.792c-20.891-14.256-83.95-34.124-92.175,2.678
				c-10.704-51.235-55.565-53.845-86.342-38.46c-27.288,13.639-35.305,25.499-41.89,49.997
				c-36.759-42.305-93.182,7.694-84.631,32.694c0,0-30.052-1.279-46.164,14.421C4.613,204.282-2.353,248.537,46.812,265.145z"/>
			<path d="M187.063,379.846c-3.904,0-7.769-0.174-11.482-0.509c-12.374-1.122-42.031-6.503-50.128-32.167
				c-0.524-1.659-0.962-3.356-1.3-5.024c-5.927,4.204-14.185,6.403-24.183,6.403c-0.002,0-0.004,0-0.007,0
				c-17.537-0.003-38.565-7.151-47.874-16.281c-10.583-10.381-23.65-37.736-19.233-55.314c1.283-5.097,3.978-9.023,7.902-11.591
				c-21.97-9.024-29.553-23.201-31.977-33.876c-3.898-17.166,3.013-37.442,17.605-51.657C40,166.562,62.734,164.875,71.222,164.734
				c-1.059-6.905,1.533-15.247,7.374-23.419c9.129-12.775,27.128-25.662,46.756-25.662c11.983,0,23.083,4.864,32.33,14.115
				c6.263-21.41,14.709-33.84,41.972-47.466c10.961-5.48,23.283-8.496,34.695-8.496c26.11,0,45.119,14.879,53.072,41.133
				c5.271-10.123,16.226-15.417,32.15-15.417c23.112,0,49.555,10.948,60.946,18.721c21.364,14.573,32.362,38.789,33.575,73.974
				c2.243-0.322,4.417-0.485,6.492-0.485c38.301,0,39.392,53.772,39.75,71.442c0.261,12.878-8.436,30.58-21.635,44.051
				c-11.154,11.379-23.339,17.646-34.314,17.646c-3.829,0-7.463-0.758-10.863-2.261c1.965,8.202,0.618,16.095-4,23.113
				c-10.057,15.273-35.54,25.536-63.413,25.536c-24.266,0-51.592-8.167-63.23-30.099c-1.077,5.319-3.482,10.256-7.209,14.758
				C241.073,373.56,210.658,379.846,187.063,379.846z M128.248,338.513c0.311,2.349,0.868,4.837,1.635,7.261
				c7.256,23.002,34.668,27.899,46.117,28.938c3.576,0.325,7.299,0.49,11.063,0.49c21.508,0,51.444-5.825,65.03-22.242
				c5.881-7.104,7.953-15.477,6.161-24.884c-0.237-1.254,0.581-2.468,1.835-2.714c1.248-0.252,2.469,0.566,2.724,1.818
				c5.872,29.078,36.547,39.437,63.298,39.437c26.377,0,50.302-9.424,59.532-23.446c4.914-7.467,5.449-15.802,1.586-24.775
				c-0.415-0.965-0.13-2.09,0.698-2.743c0.825-0.648,1.99-0.66,2.83-0.032c4.067,3.057,8.655,4.608,13.63,4.608
				c9.576,0,20.875-5.926,30.997-16.254c12.383-12.637,20.546-28.995,20.308-40.706c-1.016-50.162-15.139-71.568-43.398-66.035
				c-0.687,0.132-1.372-0.043-1.903-0.472c-0.533-0.431-0.852-1.075-0.865-1.76c-0.705-35.036-11.049-58.888-31.623-72.921
				c-12.625-8.614-38.516-17.913-58.329-17.913c-17.242,0-27.426,6.454-30.271,19.181c-0.235,1.061-1.18,1.813-2.266,1.813
				c-0.004,0-0.011,0-0.016,0c-1.093-0.006-2.034-0.775-2.256-1.845c-8.156-39.038-35.088-44.866-50.414-44.866
				c-10.705,0-22.29,2.844-32.618,8.007c-27.496,13.744-34.514,25.562-40.687,48.523c-0.222,0.83-0.884,1.469-1.721,1.66
				c-0.848,0.192-1.712-0.093-2.274-0.739c-8.995-10.354-19.659-15.603-31.697-15.603c-17.978,0-34.54,11.912-42.979,23.716
				c-5.859,8.199-8.05,16.328-6.004,22.303c0.247,0.726,0.123,1.529-0.338,2.141c-0.458,0.617-1.256,0.945-1.957,0.932
				c-0.027-0.002-0.581-0.023-1.554-0.023c-6.744,0-29.763,0.996-42.892,13.789c-13.46,13.111-19.866,31.677-16.319,47.301
				c3.367,14.823,15.208,26.059,34.246,32.489c0.959,0.322,1.599,1.233,1.579,2.25c-0.023,1.011-0.699,1.895-1.674,2.176
				c-5.378,1.566-8.682,5.07-10.1,10.717c-3.889,15.462,8.041,41.114,17.979,50.864c8.549,8.384,28.149,14.95,44.623,14.952
				c0.002,0,0.005,0,0.007,0c7.213,0,17.002-1.256,23.438-7.102c-0.642-8.958,2.227-14.925,8.145-16.853
				c0.726-0.24,1.531-0.1,2.138,0.37c0.608,0.47,0.944,1.209,0.898,1.978C134.196,328.821,132.064,334.272,128.248,338.513z"/>
		</g>
		<g>
			<path fill="#DCDDDE" d="M61.347,275.721c-24.666,7.176-7.739,51.107,6.902,65.468c16.728,16.405,76.363,28.003,78.556-8.453
				c-8.208,2.675-7.571,14.911-4.603,24.314c6.803,21.562,30.054,28.913,48.122,30.551c38.582,3.501,92-11.279,84.744-49.383
				c13.417,66.409,152.622,45.11,128.824-10.163c27.619,20.738,69.203-27.093,68.652-54.258
				c-0.662-32.674-6.839-75.959-46.163-68.268c-0.854-42.305-15.833-63.325-32.636-74.792
				c-20.896-14.254-92.504-29.314-100.726,7.487c-10.705-51.234-50.244-56.545-89.762-37.498
				c-21.299,10.263-32.119,17.537-38.705,42.035c-47.64-35.305-85.111,26.873-75.851,34.884c0,0-30.044-1.279-46.162,14.422
				C19.148,214.86,12.18,259.113,61.347,275.721z"/>
		</g>
		<g>
			<path d="M187.936,248.242c-2.365,0-4.277-0.812-5.648-1.682c-3.959-2.518-6.726-7.756-6.882-13.041
				c-0.131-4.505,0.676-7.562,1.848-9.635c1.172-5.29,3.705-9.977,7.454-11.741c2.19-1.029,6.621-1.866,11.723,4.05
				c3.574,4.145,4.048,14.308,2.44,21.347c-1.158,5.059-3.301,8.399-6.199,9.657C190.942,247.947,189.357,248.242,187.936,248.242z
				 M185.054,227.667c-0.376,0-0.896,0.241-1.673,1.034c-1.367,1.401-0.624,5.12,1.345,8.125c-0.297-1.454-0.315-2.945-0.022-4.211
				c0.338-1.46,1.063-2.617,2.072-3.379c-0.292-0.494-0.621-0.911-0.977-1.22C185.609,227.855,185.387,227.667,185.054,227.667z
				 M192.296,230.544c0.379,1.342,0.606,2.755,0.671,4.138c0.383-2.34-0.421-4.354-1.166-5.637c0.088,0.231,0.175,0.467,0.254,0.708
				C192.16,230.01,192.239,230.274,192.296,230.544z M184.582,219.491c3.674,0,7.639,2.199,10.284,5.772
				c-0.356-2.775-1.059-5.002-1.955-6.038c-2.36-2.742-4.456-3.712-6.227-2.877c-1.129,0.53-2.147,1.664-2.995,3.188
				C183.984,219.506,184.283,219.491,184.582,219.491z"/>
		</g>
		<g>
			<g>
				<path d="M256.794,238.797c-1.967-0.01-3.465-3.819-4.048-6.241c-0.968-4.027-0.755-8.317,0.014-12.355
					c0.324-1.708,0.825-3.431,1.651-4.963c0.276-0.515,0.586-0.961,1.013-1.356c-2.115,1.958-4.306,0.07-2.671,1.27
					c3.984,2.923,5.352,8.369,5.892,12.988c0.566,4.848,0.014,10.734-2.78,14.871c-1.084,1.604,1.956,0.607,0.568,0.108
					c-1.358-0.489-2.455-1.492-3.503-2.44c-1.977-1.791-2.469-5.158-2.444-7.668c0.022-2.424,0.646-4.993,1.816-7.115
					c1.508-2.735-3.748-0.978-2.463,0.354c1.123,1.156,1.599,2.961,2.1,4.44c0.353,1.041,0.389,2.499,0.389,3.583
					c-0.442,2.381,1.192,1.952,4.904-1.288c-0.935-0.73-1.701-1.607-2.305-2.632c-1.843-3.277-0.199-8.175,2.321-10.59
					c-2.696,0.144-5.396,0.288-8.092,0.434c0.859,2.379,3.472,3.646,3.869,6.041c0.517,3.127,9.53,0.975,8.97-2.403
					c-0.46-2.778-2.971-3.558-3.868-6.041c-1.039-2.875-6.617-0.984-8.091,0.431c-3.424,3.283-4.988,7.374-4.743,12.095
					c0.231,4.444,5.156,8.793,9.587,8.249c8.564-1.052,8.098-12.349,2.244-16.786c-6.455-4.894-13.482,2.759-15.078,8.533
					c-2.149,7.771,1.405,15.934,9.551,17.914c7.625,1.85,13.41-4.326,15.28-10.957c2.086-7.388,1.111-16.394-3.21-22.774
					c-3.765-5.56-10.202-6.177-15.456-2.152c-4.388,3.363-5.061,10.891-5.082,15.905c-0.027,6.777,1.84,15.68,10.195,15.72
					c2.032,0.009,4.708-0.666,5.918-2.468C260.429,239.734,258.245,238.801,256.794,238.797L256.794,238.797z"/>
			</g>
		</g>
		<g>
			<g>
				<path d="M215.887,288.776c-57.796,0-61.007-36.552-61.034-36.933c-0.089-1.279,0.877-2.391,2.156-2.477
					c1.256-0.1,2.383,0.871,2.476,2.147c0.111,1.44,3.378,35.22,62.962,32.462c59.476-2.746,64.107-31.346,64.148-31.635
					c0.175-1.265,1.34-2.156,2.603-1.992c1.266,0.165,2.161,1.316,2.003,2.582c-0.168,1.336-4.821,32.743-68.541,35.685
					C220.325,288.723,218.064,288.776,215.887,288.776z"/>
			</g>
			<g>
				<circle cx="157.17" cy="250.721" r="5.408"/>
			</g>
			<g>
				<circle cx="288.897" cy="250.721" r="5.408"/>
			</g>
		</g>
		<g>
			<path fill="#F6978F" d="M110.591,286.27c-5.159,0-10.34-1.547-15.115-4.103c-0.968,0.192-1.935,0.297-2.882,0.302
				c-0.021,0-0.041,0-0.059,0c-3.501,0-6.546-1.332-8.734-3.742c-7.535-2.398-14.224-6.419-17.97-11.936
				c-7.82-11.523-3.771-20.889,2.624-25.813c5.081-3.909,12.401-5.785,19.906-5.098c9.356-2.703,19.902-1.411,27.605,3.674
				c7.712,5.088,11.729,13.149,11.319,22.692c-0.304,7.063-4.265,12.694-11.054,15.964c0.714,0.712,1.199,1.665,1.324,2.744
				c0.297,2.546-1.528,4.853-4.074,5.147C112.518,286.215,111.554,286.27,110.591,286.27z M96.382,271.884
				c0.1,0.009,0.197,0.019,0.297,0.027c1.125-0.617,2.258-1.44,3.294-2.427c-2.249,0.164-4.591,0.082-6.891-0.223
				C94.131,270.197,95.237,271.076,96.382,271.884z M113.257,263.227c-0.233,2.043-0.837,4.104-1.814,6.127
				c-0.172,0.355-0.356,0.709-0.549,1.057c2.801-1.062,4.784-2.561,5.934-4.479c-0.286-0.221-0.549-0.479-0.782-0.773
				c-0.737-0.918-1.587-1.705-2.521-2.367C113.437,262.94,113.348,263.086,113.257,263.227z M74.621,247.971
				c-0.172,0.12-0.338,0.24-0.5,0.367c-4.179,3.215-4.384,7.669-0.606,13.237c1.152,1.696,2.891,3.252,5.029,4.614
				c-1.324-2.179-2.39-4.412-3.143-6.641c-2.011-3.115-2.05-5.818-1.563-7.769c0.088-0.354,0.198-0.698,0.327-1.034
				C74.242,249.789,74.395,248.863,74.621,247.971z M83.832,255.342c0.363,0.416,0.864,0.914,1.549,1.49
				c0.127,0.108,0.259,0.213,0.395,0.313c0.828-0.732,1.741-1.419,2.742-2.059c1.687-1.074,3.553-1.964,5.53-2.648
				c-1.467-0.231-3.014-0.322-4.601-0.244c-3.041,0.148-4.988,0.865-5.954,1.428C83.562,254.156,83.673,254.728,83.832,255.342z
				 M113.597,252.461c1.007,0.371,1.991,0.811,2.939,1.316c-1.426-3.072-3.66-5.133-5.687-6.471
				c-0.401-0.266-0.814-0.516-1.236-0.751c0.045,0.05,0.091,0.104,0.136,0.156C111.559,248.791,112.792,250.707,113.597,252.461z"/>
		</g>
		<g>
			<path fill="#F6978F" d="M365.267,282.695c-0.165,0-0.332-0.002-0.498-0.004c-8.495-0.164-15.601-4.384-20.117-11.773
				c-7.418-3.134-8.68-7.98-8.748-10.68c-0.107-4.118,2.168-7.852,5.527-10.98c1.046-2.859,2.765-5.486,5.146-7.8
				c8.909-8.662,26.011-11.156,38.927-5.678c10.021,4.251,15.755,12.621,15.728,22.966c-0.035,12.879-7.125,17.092-11.35,18.459
				c-2.652,0.859-5.603,1.078-8.666,0.787C376.469,280.936,370.836,282.695,365.267,282.695z M349.655,254.52
				c-0.362,2.398,0.027,5.074,1.175,8.008c3.458,8.834,9.582,10.789,14.115,10.875c0.565,0.014,1.158-0.006,1.743-0.054
				c-5.392-2.878-10.16-6.78-13.162-10.911c-2.027-2.789-3.154-5.612-3.365-8.283C349.989,254.274,349.818,254.396,349.655,254.52z
				 M359.678,254.556c0.35,0.952,0.979,1.896,1.36,2.421c3.523,4.848,11.089,9.592,17.859,11.256
				c0.405-0.342,0.794-0.698,1.163-1.063c-2.408-1.477-3.848-3.67-4.882-5.617c-0.993-1.868-0.582-4.108,0.862-5.51
				c-3.578-0.758-8.854-1.057-14.32-1.369C361.052,254.637,360.371,254.596,359.678,254.556z"/>
		</g>
	</g>
</g>
</svg>
