<?xml version="1.0" encoding="utf-8"?>
<!-- Generator: Adobe Illustrator 16.0.0, SVG Export Plug-In . SVG Version: 6.00 Build 0)  -->
<!DOCTYPE svg PUBLIC "-//W3C//DTD SVG 1.1//EN" "http://www.w3.org/Graphics/SVG/1.1/DTD/svg11.dtd">
<svg version="1.1" id="Layer_1" xmlns="http://www.w3.org/2000/svg" xmlns:xlink="http://www.w3.org/1999/xlink" x="0px" y="0px"
	 width="480px" height="480px" viewBox="0 0 480 480" enable-background="new 0 0 480 480" xml:space="preserve">
<g>
	<g>
		<g>
			<path fill="#FFFFFF" d="M258.125,93.605c0,0-1.59-15.09,9.53-15.885s17.475,2.382,17.475,7.942s-1.59,19.058-5.56,18.265
				c-3.973-0.792-11.917-0.792-15.093-2.382C261.303,99.96,255.742,94.398,258.125,93.605z"/>
			<path d="M279.901,106.169c-0.249,0-0.504-0.026-0.765-0.078c-1.331-0.265-3.242-0.444-5.263-0.631
				c-3.929-0.366-7.992-0.745-10.383-1.941c-2.544-1.271-8.382-5.997-8.141-9.379c0.039-0.553,0.215-1.055,0.506-1.478
				c-0.093-2.615,0.089-8.975,3.619-13.192c1.997-2.382,4.696-3.711,8.022-3.951c1.191-0.084,2.328-0.125,3.414-0.125
				c10.284,0,16.424,3.839,16.424,10.269C287.336,85.868,287.252,106.169,279.901,106.169z M260.015,94.741
				c0.87,1.332,3.466,3.841,5.45,4.832c1.649,0.827,5.624,1.198,8.818,1.495c2.038,0.189,3.969,0.37,5.493,0.655
				c1.495-1.31,3.147-9.638,3.147-16.06c0-5.435-9.193-5.857-12.012-5.857c-0.984,0-2.019,0.039-3.1,0.117
				c-2.113,0.15-3.731,0.926-4.946,2.372c-3.242,3.858-2.555,11.012-2.546,11.083C260.37,93.868,260.253,94.342,260.015,94.741z"/>
		</g>
		<g>
			<path fill="#B9E5FB" d="M265.272,97.576c0,0-1.59-15.09,9.53-15.885s17.475,2.382,17.475,7.942s-1.59,19.06-5.56,18.268
				c-3.973-0.793-11.917-0.797-15.093-2.383C268.45,103.928,262.89,98.371,265.272,97.576z"/>
		</g>
		<g>
			<path fill="#FFFFFF" d="M237.574,234.727c0,0-1.215,32.697-5.873,74.35c-3.959,35.393-15.844,120.303-15.844,120.303
				l12.036,1.666c12.492-67.529,10.808-45.211,15.464-86.863c2.995-26.799,6.438-32.637,12.547-108.964L237.574,234.727z"/>
			<path d="M227.896,433.25c-0.099,0-0.203-0.006-0.306-0.02l-12.033-1.666c-0.582-0.08-1.105-0.389-1.458-0.854
				c-0.353-0.471-0.506-1.057-0.424-1.637c0.119-0.85,11.926-85.285,15.837-120.244c4.593-41.084,5.847-73.858,5.859-74.186
				c0.044-1.187,1.021-2.124,2.202-2.124c0.021,0,0.041,0,0.061,0.002l18.329,0.489c0.605,0.018,1.179,0.28,1.584,0.732
				c0.402,0.448,0.605,1.047,0.558,1.65c-4.225,52.77-7.199,72.049-9.588,87.542c-1.097,7.104-2.043,13.236-2.965,21.49
				c-2.725,24.369-3.311,27.041-5.773,38.285c-1.794,8.188-4.504,20.559-9.715,48.736
				C229.866,432.502,228.944,433.25,227.896,433.25z M218.348,427.496l7.76,1.072c4.977-26.785,7.606-38.789,9.359-46.801
				c2.424-11.064,2.999-13.691,5.698-37.832c0.933-8.346,1.888-14.521,2.99-21.674c2.344-15.191,5.252-34.043,9.364-84.901
				l-13.834-0.37c-0.362,8.009-1.857,37.138-5.791,72.332C230.332,341.17,220.235,413.945,218.348,427.496z"/>
		</g>
		<g>
			<path fill="#A5A7AA" d="M243.134,237.109c0,0-1.217,32.696-5.872,74.35c-3.959,35.393-15.846,120.303-15.846,120.303
				l12.038,1.666c12.492-67.531,10.808-45.211,15.465-86.863c2.994-26.799,6.437-32.637,12.546-108.964L243.134,237.109z"/>
		</g>
		<g>
			<path fill="#FFFFFF" d="M214.203,375.373c2.505-11.291,30.596-12.615,30.601,6.121c0.004,19.059-3.151,81.111-25.818,86.686
				c-23.063,5.67-55.042-5.76-56.007-31.645c-0.289-7.689,1.646-25.557,22.399-24.42c8.227,0.453,6.471,20.742,8.766,27.363
				c1.247,3.602,5.433,7.582,11.376,3.254c3.699-2.693,2.303-13.277,3.081-17.885L214.203,375.373z"/>
			<path d="M206.797,471.809c-21.676,0-45.169-12.334-46.022-35.191c-0.151-4.006,0.186-14.041,6.54-20.637
				c4.278-4.445,10.28-6.502,18.184-6.066c7.565,0.416,8.613,11.402,9.455,20.23c0.332,3.5,0.648,6.805,1.275,8.611
				c0.47,1.359,1.904,3.658,4.292,3.658l0,0c1.12,0,2.365-0.492,3.701-1.465c1.689-1.23,1.794-6.92,1.863-10.682
				c0.041-2.174,0.078-4.227,0.343-5.787l5.583-49.352c0.009-0.078,0.021-0.156,0.039-0.234c1.308-5.887,8.137-9.998,16.609-9.998
				c9.131,0,18.35,5.131,18.352,16.598c0.002,8.398-0.754,82.25-27.499,88.828C215.5,471.309,211.224,471.809,206.797,471.809z
				 M183.519,414.27c-5.595,0-9.979,1.607-13.029,4.773c-5.179,5.377-5.437,13.969-5.308,17.41c0.75,20.1,22,30.943,41.615,30.943
				c4.071,0,7.996-0.457,11.663-1.359c19.107-4.699,24.144-57.355,24.138-84.543c-0.002-8.994-7.512-12.188-13.94-12.188
				c-6.128,0-11.376,2.762-12.276,6.441l-5.59,49.346c-0.224,1.355-0.258,3.25-0.297,5.252c-0.099,5.461-0.211,11.648-3.675,14.168
				c-2.107,1.535-4.227,2.313-6.299,2.313l0,0c-4.259,0-7.318-3.328-8.462-6.625c-0.797-2.307-1.122-5.703-1.497-9.637
				c-0.61-6.387-1.527-16.037-5.304-16.246C184.661,414.287,184.083,414.27,183.519,414.27z"/>
		</g>
		<g>
			<path fill="#FFFFFF" d="M42.333,272.791c0,0,11.796-203.806,229.434-176.006c202.841,25.909,169.83,242.238,169.83,242.238
				s-12.126-18.693-33.852-31.307c-13.032-7.568-25.242-10.566-44.641-8.406c-51.735,5.76-64.687,36.82-64.687,36.82
				s-17.641-42.479-61.616-51.117c-16.492-3.24-38.256-2.779-51.974,3.551c-22.862,10.543-39.025,27.414-39.025,27.414
				s-4.528-40.396-38.157-54.789c-11.301-4.84-27.408-6.455-36.393-3.973C53.505,262.117,42.333,272.791,42.333,272.791z"/>
			<path d="M441.598,341.23c-0.737,0-1.438-0.371-1.851-1.006c-0.118-0.184-12.126-18.42-33.107-30.602
				c-10.754-6.242-20.052-8.789-32.094-8.789c-3.483,0-7.146,0.221-11.197,0.668c-49.68,5.531-62.769,35.182-62.896,35.484
				c-0.345,0.814-1.146,1.348-2.034,1.348c-0.002,0-0.002,0-0.004,0c-0.89-0.004-1.691-0.535-2.031-1.357
				c-0.175-0.412-17.749-41.498-60.005-49.797c-6.436-1.266-13.57-1.934-20.631-1.934c-11.906,0-22.559,1.891-29.995,5.322
				c-22.19,10.232-38.198,26.77-38.357,26.936c-0.59,0.615-1.484,0.84-2.299,0.563c-0.81-0.273-1.389-0.992-1.486-1.842
				c-0.043-0.393-4.813-39.301-36.832-53.01c-7.126-3.051-16.839-4.945-25.351-4.945c-3.729,0-7.044,0.371-9.586,1.07
				c-17.018,4.701-27.875,14.941-27.983,15.045c-0.657,0.625-1.624,0.789-2.451,0.41c-0.823-0.381-1.327-1.229-1.275-2.133
				c0.026-0.451,2.913-45.675,27.944-90.256c23.167-41.257,70.502-90.433,164.473-90.433c12.58,0,25.869,0.883,39.499,2.624
				c58.077,7.419,102.555,31.106,132.191,70.405c54.385,72.112,39.693,173.34,39.538,174.354c-0.138,0.904-0.82,1.629-1.715,1.822
				C441.907,341.213,441.753,341.23,441.598,341.23z M374.546,296.422c12.717,0,22.977,2.809,34.308,9.389
				c15.515,9.006,26.14,20.9,31.206,27.367c2.169-21.918,6.687-104.511-39.361-165.545c-28.895-38.297-72.368-61.399-129.211-68.659
				c-13.442-1.719-26.544-2.589-38.938-2.589c-73.667,0-127.684,29.623-160.548,88.044c-19.648,34.926-25.416,70.259-26.954,83.273
				c4.899-3.674,13.817-9.352,25.618-12.613c2.962-0.816,6.583-1.23,10.763-1.23c9.207,0,19.332,1.982,27.086,5.303
				c28.22,12.08,36.578,41.244,38.778,52.287c5.782-5.393,19.209-16.859,36.613-24.887c8.002-3.691,19.312-5.727,31.843-5.727
				c7.343,0,14.771,0.699,21.479,2.016c36.542,7.18,55.519,37.477,61.29,48.449c5.463-8.838,22.515-29.525,64.345-34.178
				C367.075,296.65,370.899,296.422,374.546,296.422z"/>
		</g>
		<g>
			<path fill="#B9E5FB" d="M219.761,382.521c2.505-11.293,30.596-12.615,30.602,6.119c0.002,19.059-3.153,81.113-25.82,86.688
				c-23.063,5.67-55.042-5.76-56.007-31.645c-0.289-7.693,1.646-25.559,22.401-24.42c8.225,0.451,6.469,20.742,8.763,27.361
				c1.248,3.6,5.433,7.584,11.376,3.256c3.699-2.695,2.303-13.279,3.081-17.887L219.761,382.521z"/>
		</g>
		<g>
			<path fill="#B9E5FB" d="M50.896,282.322c0,0,11.796-203.805,229.434-176.007c202.843,25.911,169.828,242.239,169.828,242.239
				s-12.124-18.693-33.849-31.305c-13.033-7.57-25.243-10.564-44.644-8.406c-51.733,5.758-64.684,36.82-64.684,36.82
				s-17.644-42.482-61.619-51.117c-16.49-3.238-38.256-2.777-51.974,3.547c-22.858,10.545-39.025,27.414-39.025,27.414
				s-4.528-40.393-38.155-54.789c-11.303-4.838-27.408-6.451-36.391-3.973C62.066,271.65,50.896,282.322,50.896,282.322z"/>
		</g>
		<g>
			<path d="M212.273,200.88c-2.329,0-5.385-1.101-8.539-5.321c-3.25-4.347-3.016-14.453-0.935-21.322
				c1.495-4.924,3.837-8.078,6.777-9.116c4.674-1.655,8.119-0.19,10.187,1.337c3.742,2.757,6.114,8.128,5.902,13.367
				c-0.179,4.472-1.187,7.441-2.488,9.41c-1.521,5.166-4.352,9.645-8.182,11.131C214.29,200.639,213.359,200.88,212.273,200.88z
				 M205.701,186.281c0.129,3.007,0.696,5.474,1.566,6.637c2.197,2.938,4.261,4.061,6.131,3.335c1.228-0.476,2.378-1.62,3.367-3.193
				C212.743,193.273,208.275,190.579,205.701,186.281z M214.018,183.263c0.273,0.566,0.592,1.049,0.952,1.404
				c0.388,0.379,0.967,0.952,2.606-0.508c1.57-1.4,0.961-5.562-1.047-8.819c0.299,1.633,0.246,3.333-0.181,4.718
				C215.909,181.497,215.093,182.595,214.018,183.263z M208.521,176.55c-0.98,2.693-0.215,5.157,0.53,6.667
				c0.179,0.36,0.377,0.708,0.595,1.045c-0.246-0.616-0.453-1.265-0.621-1.935c-0.066-0.211-0.116-0.429-0.15-0.648
				C208.516,180.001,208.396,178.227,208.521,176.55z"/>
		</g>
		<g>
			<g>
				<path d="M280.326,175.96c5.581,0.159,4.496,13.843,4.014,16.973c-0.334,2.169-1.112,6.62-2.935,7.878
					c1.967-1.357,3.895-0.026,2.308-0.862c-0.727-0.383-1.311-1.189-1.831-1.796c-1.654-1.935-2.592-4.248-3.266-6.671
					c-1.282-4.608-1.071-9.602-0.02-14.224c0.454-1.997,1.229-3.839,2.414-5.508c1.123-1.575-1.353-0.5-0.144-0.03
					c1.353,0.525,2.423,1.575,3.453,2.555c3.507,3.335,2.542,10.325,0.62,14.177c-0.306,0.614-0.7,1.204-1.187,1.689
					c3.227,0.194,4.164-0.282,2.815-1.426c-0.48-0.609-0.855-1.279-1.127-2.005c-0.407-0.883-2.158-6.176-1.092-7.059
					c-1.334,0.56-2.665,1.116-3.999,1.671c-0.883,0.56-0.676,1.103,0.623,1.631c1.185,1.152,1.452,2.536,1.706,4.063
					c0.477,2.872-1.222,6.267-3.268,8.134c2.561-0.136,5.124-0.273,7.686-0.411c-0.797-2.404-3.369-3.697-3.714-6.123
					c-0.418-2.947-8.98-0.96-8.521,2.284c0.392,2.768,2.882,3.619,3.714,6.122c0.926,2.792,6.303,0.853,7.686-0.409
					c3.469-3.163,5.069-7.221,4.939-11.88c-0.113-4.108-4.87-9.136-9.211-8.309c-3.58,0.681-6.15,2.163-6.243,6.027
					c-0.088,3.667,0.925,8.184,3.928,10.582c6.193,4.941,13.136-2.807,14.782-8.247c2.326-7.677-1.03-15.814-9.055-17.975
					c-7.417-1.995-13.138,4.259-15.097,10.595c-2.253,7.298-1.486,16.275,2.652,22.727c3.369,5.248,9.909,6.648,14.888,2.464
					c4.25-3.567,5.25-10.095,5.469-15.308c0.285-6.816-1.264-15.997-9.693-16.238c-1.915-0.056-4.489,0.659-5.622,2.341
					C276.86,175.085,278.96,175.919,280.326,175.96L280.326,175.96z"/>
			</g>
		</g>
		<g>
			<ellipse cx="195.304" cy="213.947" rx="4.089" ry="5.398"/>
		</g>
		<g>
			<ellipse cx="294.859" cy="213.947" rx="4.088" ry="5.398"/>
		</g>
		<g>
			<path fill="#FFFFFF" d="M371.668,27.554c2.846,16.816-0.558,50.322-16.71,59.865c-9.767,5.765-30.428,7.41-32.393-6.385
				c-3.55-24.924,42.73-33.179,46.77-56.787"/>
			<path d="M338.429,93.894c-3.707,0-7.305-0.629-10.325-2.079c-4.375-2.104-7.046-5.724-7.723-10.472
				c-2.087-14.666,11.107-23.825,23.871-32.683c10.413-7.229,21.185-14.705,22.909-24.786c0.205-1.198,1.327-2.003,2.547-1.801
				c1.199,0.205,2.008,1.344,1.801,2.546c-0.043,0.25-0.089,0.5-0.14,0.748c1.174-0.17,2.274,0.64,2.475,1.816
				c2.682,15.859,0.181,51.533-17.764,62.133C351.458,92.046,344.784,93.894,338.429,93.894z M369.813,30.113
				c-4.069,9-13.692,15.678-23.048,22.173c-12.199,8.468-23.722,16.464-22.016,28.438c0.472,3.311,2.192,5.64,5.265,7.115
				c6.562,3.151,17.615,1.344,23.821-2.32C368.534,76.837,371.877,46.549,369.813,30.113z"/>
		</g>
		<g>
			<path fill="#FFFFFF" d="M78.494,76.493c-2.072,22.903-63.277,35.411-60.145,62.704c1.749,15.222,14.075,30.71,38.39,19.194
				c11.008-5.213,24.316-26.871,25.594-52.467L78.494,76.493z"/>
			<path d="M41.114,164.599L41.114,164.599c-15.243,0-23.52-12.632-24.958-25.15c-1.842-16.068,15.656-26.83,32.58-37.239
				c13.128-8.074,26.704-16.426,27.561-25.915c0.101-1.12,1.03-1.986,2.154-2.008c1.06,0.015,2.085,0.806,2.231,1.922l3.839,29.43
				c0.017,0.132,0.021,0.263,0.013,0.396c-1.314,26.337-14.96,48.719-26.85,54.35C51.777,163.182,46.202,164.599,41.114,164.599z
				 M77.421,85.318c-5.138,7.585-15.536,13.981-26.374,20.648c-15.747,9.685-32.031,19.702-30.505,32.98
				c1.125,9.797,7.188,21.241,20.573,21.241c4.431,0,9.371-1.275,14.678-3.79c9.343-4.422,22.964-24.379,24.325-50.386
				L77.421,85.318z"/>
		</g>
		<g>
			<path fill="#FFFFFF" d="M453.236,16.69c-14.713,17.877-59.451,36.124-59.019,61.493c0.438,25.68,37.262,20.666,49.879,6.745
				c14.075-15.528,15.417-57.72,10.229-77.926"/>
			<path d="M415.269,98.59c-3.838,0-7.496-0.56-10.678-1.756c-7.958-2.992-12.426-9.601-12.578-18.614
				c-0.302-17.682,19.404-31.774,36.791-44.208c9.146-6.538,17.785-12.714,22.729-18.725c0.52-0.625,1.311-0.892,2.058-0.775
				c-0.388-2.503-0.855-4.842-1.4-6.96c-0.302-1.178,0.409-2.38,1.588-2.687c1.185-0.293,2.383,0.41,2.687,1.59
				c5.424,21.133,3.912,63.801-10.732,79.955C438.927,93.918,426.354,98.59,415.269,98.59z M454.18,18.989
				c-5.376,6.148-13.855,12.21-22.811,18.612c-16.503,11.803-35.208,25.178-34.945,40.546c0.123,7.281,3.394,12.18,9.72,14.558
				c10.7,4.022,28.355-0.474,36.317-9.259C453.515,71.256,456.556,40.638,454.18,18.989z"/>
		</g>
		<g>
			<path fill="#B9E5FB" d="M378.413,32.203c2.848,16.815-0.561,50.324-16.71,59.863c-9.766,5.767-30.426,7.413-32.393-6.383
				c-3.548-24.924,42.732-33.179,46.771-56.789"/>
		</g>
		<g>
			<path fill="#B9E5FB" d="M83.612,82.891c-2.074,22.903-63.279,35.411-60.147,62.704c1.749,15.222,14.078,30.71,38.392,19.194
				c11.005-5.213,24.314-26.871,25.594-52.467L83.612,82.891z"/>
		</g>
		<g>
			<path fill="#B9E5FB" d="M459.983,21.339c-14.713,17.878-59.453,36.124-59.021,61.494c0.439,25.68,37.264,20.665,49.88,6.745
				c14.076-15.523,15.418-57.719,10.23-77.921"/>
		</g>
		<g>
			<path fill="#F6978F" d="M131.353,228.479c-1.111,0.002-2.327-0.289-3.589-0.775c-9.237,1.31-17.102-1.327-21.275-7.202
				c-2.115-2.975-2.766-6.079-1.978-8.908c-3.847-2.466-7.802-6.441-4.537-13.166c6.387-13.147,24.842-17.837,38.957-15.579
				c13.507,2.158,27.093,13.343,26.453,28.316c-0.312,7.281-2.66,12.147-6.977,14.461c-5.2,2.792-11.738,1.034-18.197-2.055
				c-1.413,0.773-2.882,1.452-4.371,2.025c-0.446,1.008-1.208,1.84-2.236,2.374C132.93,228.324,132.169,228.479,131.353,228.479z
				 M122.93,214.034c2.034,1.671,4.352,3.343,6.14,4.455c0.455-0.108,0.905-0.226,1.348-0.353c-0.396-0.239-0.788-0.474-1.174-0.709
				c-1.222-0.734-2.382-1.437-3.462-2.063C124.856,214.824,123.893,214.396,122.93,214.034z M148.115,217.33
				c2.557,0.9,4.776,1.249,6.12,0.525c1.323-0.711,2.171-3.285,2.335-7.066c0.177-4.149-1.46-7.923-4.119-11.021
				c0.659,3.003,0.629,6.281-0.172,9.633C151.568,212.377,150.092,215.029,148.115,217.33z M134.072,210.035
				c1.596,0.961,3.537,2.128,5.594,3.274c0.25-0.215,0.489-0.433,0.722-0.655c-0.681-0.338-1.409-0.705-2.188-1.099
				c-0.765-0.383-1.719-0.866-2.57-1.28C135.119,210.186,134.597,210.104,134.072,210.035z M119.828,193.004
				c-5.314,1.801-9.782,4.886-11.917,9.28c-0.267,0.551-0.278,0.792-0.278,0.797c0.232,0.332,1.467,1.053,2.701,1.73
				c0.244-0.14,0.496-0.276,0.752-0.407C111.686,201.199,114.714,197.795,119.828,193.004z M138.828,202.021
				c1.846,0.405,3.606,0.922,5.239,1.549c-0.168-3.309-1.685-6.116-4.282-7.624c-3.938-2.286-9.129-0.995-13.89,3.464
				c-0.648,0.607-1.23,1.164-1.75,1.672c2.771-0.22,5.631-0.215,8.436,0.015c0.015-0.006,0.03-0.015,0.045-0.02
				C134.395,200.277,135.791,200.585,138.828,202.021z"/>
		</g>
		<g>
			<path fill="#F6978F" d="M350.424,237.269c-6.48,0-13.412-3.8-18.031-8.283c-6.483-6.292-8.754-13.834-6.072-20.176
				c3.326-7.865,11.558-9.948,19.851-10.208c0.138-0.052,0.278-0.104,0.42-0.155c3.937-1.431,10.974-0.89,17.342,1.025
				c17.612,0.702,21.608,9.293,22.511,12.97c1.609,6.566-2.089,13.882-8.998,17.792c-4.745,2.684-11.299,3.877-18.534,1.719
				c0.025,1.697-0.933,3.326-2.572,4.08C354.472,236.889,352.47,237.269,350.424,237.269z M356.526,221.366
				c0.863,0.095,1.743,0.16,2.635,0.188c6.708,0.211,11.374-1.667,12.305-3.543c0.456-0.922,0.054-2.46-1.086-4.3
				c-2.478,1.363-6.456,3.425-9.907,5.17c-1.695,0.857-3.147,1.594-4.401,2.212C356.225,221.186,356.376,221.278,356.526,221.366z
				 M336.264,209.921c-0.801,0.625-1.422,1.39-1.817,2.325c-0.737,1.745-0.395,3.714,0.513,5.601
				c-0.371-1.357-0.071-2.826,0.831-3.938c0.304-0.373,0.636-0.754,0.993-1.142C336.481,211.836,336.299,210.888,336.264,209.921z
				 M348.302,214.505c0.104,0.112,0.209,0.226,0.318,0.342c1.734-0.75,6.511-3.125,10.892-5.377
				C355.858,210.093,351.712,212.155,348.302,214.505z"/>
		</g>
		<g>
			<path fill="#FFFFFF" d="M294.86,215.869c0,0-2.908,30.709-50.144,33.59c-47.456,2.893-49.415-34.551-49.415-34.551
				L294.86,215.869z"/>
			<path d="M239.609,251.824c-44.079,0-46.491-36.434-46.509-36.8c-0.034-0.607,0.188-1.202,0.608-1.642
				c0.422-0.439,0.965-0.719,1.615-0.681l99.558,0.961c0.618,0.004,1.204,0.269,1.618,0.728c0.413,0.459,0.613,1.068,0.556,1.685
				c-0.03,0.327-3.647,32.625-52.204,35.584C243.072,251.771,241.31,251.824,239.609,251.824z M197.792,217.138
				c1.258,7.531,7.878,30.274,41.817,30.274c1.609,0,3.283-0.053,4.975-0.154c37.482-2.285,45.835-22.195,47.62-29.209
				L197.792,217.138z"/>
		</g>
		<g>
			<path fill="#F6978F" d="M295.634,219.227c0,0,3.996,29.914-43.236,32.792c-47.457,2.893-49.417-34.552-49.417-34.552
				L295.634,219.227z"/>
		</g>
	</g>
</g>
</svg>
