<?xml version="1.0" encoding="utf-8"?>
<!-- Generator: Adobe Illustrator 16.0.0, SVG Export Plug-In . SVG Version: 6.00 Build 0)  -->
<!DOCTYPE svg PUBLIC "-//W3C//DTD SVG 1.1//EN" "http://www.w3.org/Graphics/SVG/1.1/DTD/svg11.dtd">
<svg version="1.1" id="Layer_1" xmlns="http://www.w3.org/2000/svg" xmlns:xlink="http://www.w3.org/1999/xlink" x="0px" y="0px"
	 width="480px" height="480px" viewBox="0 0 480 480" enable-background="new 0 0 480 480" xml:space="preserve">
<g>
	<g>
		<g>
			<path fill="#FFFFFF" d="M73.685,263.699c0-94.964,77.259-172.224,172.223-172.224c82.418,0,151.487,58.2,168.302,135.659
				l15.739-3.872c-18.51-84.62-93.871-147.972-184.041-147.972C141.853,75.292,57.5,159.646,57.5,263.699
				c0,17.155,2.306,33.766,6.601,49.559l15.746-3.875C75.836,294.829,73.685,279.514,73.685,263.699z"/>
			<path d="M62.69,315.654l-0.509-1.873c-4.428-16.275-6.67-33.125-6.67-50.082c0-104.986,85.41-190.398,190.397-190.398
				c43.679,0,86.349,15.164,120.149,42.701c33.324,27.146,56.703,65.088,65.835,106.834l0.416,1.896l-19.609,4.824l-0.436-2
				c-16.865-77.696-86.829-134.09-166.355-134.09c-93.866,0-170.232,76.366-170.232,170.233c0,15.295,2.048,30.488,6.089,45.154
				l0.544,1.973L62.69,315.654z M245.907,77.282c-102.791,0-186.417,83.626-186.417,186.417c0,15.953,2.029,31.809,6.031,47.16
				l11.874-2.922c-3.783-14.399-5.701-29.27-5.701-44.238c0-96.061,78.151-174.213,174.212-174.213
				c80.707,0,151.787,56.746,169.8,135.231l11.871-2.921C408.306,137.94,332.217,77.282,245.907,77.282z"/>
		</g>
		<g>
			<path fill="#FFFFFF" d="M106.056,263.699c0-77.114,62.736-139.853,139.852-139.853c67.233,0,123.522,47.697,136.848,111.027
				l15.716-3.868c-15.071-70.394-77.738-123.344-152.563-123.344c-86.041,0-156.038,69.998-156.038,156.037
				c0,14.484,2.025,28.492,5.736,41.809l15.724-3.869C107.919,289.565,106.056,276.851,106.056,263.699z"/>
			<path d="M94.206,307.902l-0.519-1.861c-3.852-13.832-5.807-28.076-5.807-42.342c0-87.135,70.892-158.027,158.028-158.027
				c74.032,0,139.013,52.536,154.509,124.918l0.405,1.887l-19.59,4.82l-0.424-2.013c-13.343-63.418-70.077-109.447-134.9-109.447
				c-76.017,0-137.861,61.846-137.861,137.862c0,12.602,1.749,25.184,5.197,37.399l0.56,1.98L94.206,307.902z M245.907,109.653
				c-84.942,0-154.047,69.105-154.047,154.046c0,13.264,1.733,26.512,5.156,39.412l11.853-2.916
				c-3.188-11.943-4.802-24.212-4.802-36.496c0-78.212,63.629-141.842,141.841-141.842c66.007,0,123.862,46.388,138.356,110.596
				l11.847-2.914C380.288,159.952,317.432,109.653,245.907,109.653z"/>
		</g>
		<g>
			<path fill="#FFFFFF" d="M138.423,263.699c0-59.266,48.217-107.481,107.484-107.481c52.047,0,95.563,37.191,105.392,86.394
				l15.742-3.874c-11.576-56.266-61.492-98.707-121.134-98.707c-68.19,0-123.669,55.479-123.669,123.668
				c0,11.82,1.703,23.24,4.813,34.074l15.724-3.869C139.962,284.316,138.423,274.186,138.423,263.699z"/>
			<path d="M125.667,300.164l-0.528-1.84c-3.246-11.305-4.891-22.953-4.891-34.625c0-69.288,56.371-125.658,125.659-125.658
				c59.362,0,111.126,42.18,123.083,100.296l0.387,1.875l-19.623,4.828l-0.406-2.039c-9.815-49.132-53.319-84.793-103.44-84.793
				c-58.169,0-105.494,47.323-105.494,105.491c0,10.009,1.437,19.982,4.27,29.645l0.587,1.996L125.667,300.164z M245.907,142.022
				c-67.094,0-121.679,54.584-121.679,121.677c0,10.666,1.419,21.314,4.222,31.68l11.848-2.916
				c-2.565-9.398-3.866-19.064-3.866-28.764c0-60.362,49.109-109.472,109.475-109.472c51.319,0,95.95,36.027,106.918,85.958
				l11.865-2.919C352.397,181.961,302.75,142.022,245.907,142.022z"/>
		</g>
		<g>
			<path fill="#FFFFFF" d="M170.796,263.699c0-41.418,33.694-75.112,75.111-75.112c36.862,0,67.583,26.698,73.899,61.771
				l15.744-3.874c-8.074-42.138-45.188-74.079-89.644-74.079c-50.342,0-91.296,40.952-91.296,91.295
				c0,9.155,1.37,17.992,3.889,26.337l15.729-3.87C172,279.07,170.796,271.523,170.796,263.699z"/>
			<path d="M157.142,292.42l-0.548-1.809c-2.635-8.734-3.973-17.79-3.973-26.912c0-51.437,41.848-93.285,93.286-93.285
				c44.672,0,83.194,31.834,91.599,75.694l0.355,1.856l-19.637,4.831l-0.377-2.085c-6.276-34.843-36.53-60.134-71.94-60.134
				c-40.318,0-73.121,32.803-73.121,73.122c0,7.453,1.125,14.809,3.343,21.871l0.636,2.022L157.142,292.42z M245.907,174.395
				c-49.244,0-89.306,40.062-89.306,89.304c0,8.104,1.102,16.148,3.277,23.948l11.847-2.913c-1.938-6.824-2.919-13.891-2.919-21.035
				c0-42.514,34.586-77.103,77.102-77.103c36.629,0,68.028,25.666,75.455,61.329l11.858-2.92
				C324.46,203.979,288.04,174.395,245.907,174.395z"/>
		</g>
		<g>
			<g>
				<path fill="#ED1C24" d="M80.635,259.834c0-90.866,75.514-164.79,168.334-164.79c80.559,0,148.069,55.688,164.502,129.805
					l15.387-3.707C410.767,140.175,337.105,79.558,248.97,79.558c-101.707,0-184.155,80.714-184.155,180.276
					c0,16.41,2.252,32.307,6.454,47.416l15.388-3.706C82.738,289.618,80.635,274.961,80.635,259.834z"/>
			</g>
			<g>
				<path fill="#F68B1F" d="M248.97,95.044c-92.821,0-168.334,73.923-168.334,164.79c0,15.127,2.103,29.784,6.021,43.71l15.401-3.71
					c-3.625-12.738-5.604-26.145-5.604-40c0-82.328,68.416-149.301,152.516-149.301c73.139,0,134.392,50.664,149.12,118.018
					l15.382-3.702C397.039,150.733,329.528,95.044,248.97,95.044z"/>
			</g>
			<g>
				<path fill="#FFF200" d="M112.273,259.834c0-73.787,61.321-133.816,136.696-133.816c65.716,0,120.734,45.636,133.76,106.232
					l15.36-3.699c-14.729-67.354-75.981-118.018-149.12-118.018c-84.1,0-152.516,66.973-152.516,149.301
					c0,13.855,1.979,27.262,5.604,40l15.372-3.699C114.097,284.582,112.273,272.415,112.273,259.834z"/>
			</g>
			<g>
				<path fill="#7AC143" d="M248.97,126.018c-75.375,0-136.696,60.029-136.696,133.816c0,12.581,1.823,24.748,5.156,36.301
					l15.367-3.698c-3.04-10.366-4.704-21.296-4.704-32.603c0-65.247,54.227-118.333,120.877-118.333
					c58.296,0,107.085,40.612,118.399,94.448l15.36-3.699C369.704,171.654,314.686,126.018,248.97,126.018z"/>
			</g>
			<g>
				<path fill="#00AEEF" d="M143.912,259.834c0-56.71,47.129-102.845,105.058-102.845c50.874,0,93.404,35.588,103.016,82.664
					l15.384-3.705C356.055,182.112,307.266,141.5,248.97,141.5c-66.65,0-120.877,53.086-120.877,118.333
					c0,11.307,1.664,22.236,4.704,32.603l15.368-3.702C145.416,279.558,143.912,269.867,143.912,259.834z"/>
			</g>
			<g>
				<path fill="#007DC5" d="M248.97,156.989c-57.929,0-105.058,46.134-105.058,102.845c0,10.033,1.504,19.724,4.253,28.9
					l15.372-3.701c-2.464-7.984-3.802-16.441-3.802-25.199c0-48.17,40.029-87.358,89.235-87.358
					c43.449,0,79.727,30.565,87.62,70.881l15.396-3.704C342.374,192.577,299.844,156.989,248.97,156.989z"/>
			</g>
			<g>
				<path fill="#A05DA5" d="M175.552,259.834c0-39.63,32.937-71.871,73.418-71.871c36.029,0,66.058,25.545,72.232,59.104
					l15.388-3.709c-7.894-40.316-44.171-70.881-87.62-70.881c-49.207,0-89.235,39.188-89.235,87.358
					c0,8.758,1.338,17.215,3.802,25.199l15.374-3.703C176.729,274.539,175.552,267.318,175.552,259.834z"/>
			</g>
		</g>
		<g>
			<path fill="#FFFFFF" d="M25.456,334.184c-13.275,3.861-4.163,27.506,3.712,35.232c9.005,8.83,41.098,15.072,42.278-4.549
				c-4.416,1.438-4.074,8.027-2.478,13.086c3.662,11.605,16.177,15.561,25.898,16.441c20.764,1.883,49.514-6.07,45.607-26.578
				c7.22,35.74,82.137,24.279,69.333-5.469c14.861,11.162,37.242-14.578,36.947-29.199c-0.358-17.586-3.682-40.879-24.848-36.739
				c-0.458-22.768-8.519-34.081-17.562-40.251c-11.244-7.671-45.182-18.363-49.607,1.442c-5.761-27.574-29.902-28.977-46.466-20.699
				c-14.686,7.341-19.001,13.724-22.546,26.907c-19.782-22.768-50.147,4.141-45.544,17.596c0,0-16.173-0.689-24.846,7.761
				C2.745,301.43-1.006,325.246,25.456,334.184z"/>
			<path d="M100.933,396.652c-2.123,0-4.226-0.094-6.247-0.275c-6.806-0.617-23.125-3.588-27.615-17.824
				c-0.181-0.57-0.342-1.146-0.482-1.723c-3.226,1.959-7.485,2.979-12.528,2.979l0,0c-9.769,0-21.069-3.857-26.286-8.973
				c-5.955-5.842-13.026-20.619-10.548-30.479c0.616-2.453,1.802-4.432,3.497-5.881c-11.203-4.992-15.16-12.52-16.458-18.244
				c-2.154-9.481,1.646-20.667,9.679-28.492c7.114-6.933,18.661-8.138,23.821-8.313c-0.294-3.734,1.162-8.08,4.192-12.316
				c5.024-7.028,14.938-14.121,25.767-14.121c6.271,0,12.101,2.395,17.036,6.963c3.404-11.027,8.2-17.623,22.62-24.832
				c6-2.999,12.748-4.649,19.003-4.649c13.877,0,24.112,7.599,28.758,21.079c3.203-4.76,9.005-7.24,17.105-7.24
				c12.597,0,27.008,5.967,33.218,10.203c11.539,7.873,17.559,20.834,18.36,39.584c0.956-0.108,1.885-0.163,2.785-0.163
				c21.337,0,21.936,29.485,22.135,39.173c0.144,7.119-4.621,16.857-11.855,24.24c-7.84,8-16.721,11.326-23.848,8.943
				c0.669,4.129-0.179,8.096-2.53,11.664c-5.542,8.42-19.504,14.078-34.744,14.078c-12.695,0-26.927-4.104-33.764-14.99
				c-0.719,2.299-1.913,4.457-3.575,6.465C130.407,393.199,113.799,396.652,100.933,396.652z M70.06,373.902
				c0.168,1.121,0.444,2.301,0.805,3.451c3.774,11.955,18.169,14.514,24.183,15.059c1.901,0.174,3.881,0.26,5.885,0.26
				c15.032,0,28.545-4.592,34.429-11.703c3.017-3.643,4.077-7.945,3.156-12.779c-0.206-1.076,0.498-2.113,1.572-2.326
				c1.067-0.205,2.117,0.486,2.334,1.561c3.073,15.209,19.238,20.629,33.341,20.629c13.955,0,26.584-4.938,31.42-12.287
				c2.5-3.795,2.766-8.045,0.793-12.631c-0.357-0.828-0.112-1.793,0.597-2.352c0.71-0.559,1.705-0.568,2.426-0.027
				c2.058,1.547,4.376,2.332,6.89,2.332c4.956,0,10.843-3.109,16.153-8.527c6.432-6.563,10.84-15.352,10.717-21.371
				c-0.538-26.47-7.802-37.705-22.474-34.827c-0.575,0.114-1.174-0.037-1.633-0.404c-0.458-0.37-0.727-0.921-0.74-1.509
				c-0.375-18.598-5.835-31.239-16.694-38.646c-6.706-4.575-20.455-9.512-30.976-9.512c-8.884,0-14.124,3.279-15.566,9.743
				c-0.206,0.915-0.991,1.615-1.957,1.558c-0.939-0.007-1.743-0.668-1.934-1.584c-4.284-20.497-18.383-23.555-26.406-23.555
				c-5.648,0-11.765,1.5-17.222,4.229c-14.541,7.27-18.253,13.512-21.514,25.645c-0.191,0.709-0.758,1.257-1.476,1.422
				c-0.717,0.16-1.465-0.079-1.949-0.633c-4.696-5.403-10.247-8.145-16.498-8.145c-9.413,0-18.097,6.257-22.528,12.455
				c-2.968,4.153-4.14,8.391-3.133,11.336c0.212,0.619,0.103,1.307-0.29,1.832c-0.393,0.526-0.993,0.846-1.677,0.799
				c-0.021,0-0.309-0.012-0.807-0.012c-3.559,0-15.701,0.521-22.565,7.209c-7.063,6.883-10.429,16.602-8.575,24.764
				c1.749,7.709,7.957,13.57,17.943,16.945c0.824,0.277,1.373,1.059,1.355,1.928c-0.02,0.869-0.601,1.623-1.434,1.867
				c-2.62,0.762-4.231,2.475-4.925,5.236c-2.031,8.082,4.249,21.537,9.475,26.664c4.407,4.32,14.947,7.836,23.499,7.836
				c3.649,0,8.562-0.609,11.854-3.4c-0.25-4.926,1.51-8.346,4.916-9.455c0.622-0.201,1.312-0.086,1.833,0.318
				c0.521,0.402,0.811,1.035,0.77,1.693C73.22,368.539,72.085,371.533,70.06,373.902z"/>
		</g>
		<g>
			<path fill="#E1F4FD" d="M32.059,333.279c-12.458,3.625-3.909,25.813,3.486,33.064c8.449,8.289,38.568,14.145,39.673-4.268
				c-4.144,1.35-3.823,7.531-2.323,12.279c3.437,10.891,15.18,14.604,24.303,15.432c19.487,1.768,46.466-5.697,42.801-24.941
				c6.777,33.539,77.083,22.783,65.066-5.133c13.948,10.473,34.952-13.686,34.672-27.406c-0.334-16.5-3.454-38.361-23.316-34.479
				c-0.431-21.366-7.996-31.982-16.483-37.775c-10.552-7.198-46.719-14.804-50.873,3.783c-5.405-25.877-25.376-28.558-45.333-18.94
				c-10.759,5.186-16.223,8.858-19.548,21.23c-24.063-17.829-42.987,13.573-38.311,17.62c0,0-15.174-0.645-23.314,7.283
				C10.745,302.541,7.227,324.893,32.059,333.279z"/>
		</g>
		<g>
			<g>
				<path d="M142.73,309.629c0.297,0.008-0.501-0.494-0.805-1.041c-0.455-0.824-0.688-1.775-0.904-2.682
					c-0.589-2.498-0.601-5.138-0.41-7.682c0.144-1.92,0.424-4.086,1.308-5.824c0.972-1.904-3.248-0.674-2.027,0.48
					c0.958,0.908,1.438,2.176,1.837,3.398c0.902,2.762,1.062,5.834,0.89,8.711c-0.078,1.287-0.309,2.557-0.663,3.791
					c-0.146,0.514-0.369,0.965-0.646,1.416c-0.655,0.725-0.039,0.561,1.85-0.49c-0.392-0.209-0.742-0.477-1.051-0.797
					c-2.117-1.875-1.672-6.635-0.492-8.877c-1.102,0.174-2.202,0.347-3.304,0.52c0.342,0.373,0.589,0.807,0.737,1.299
					c0.278,0.637,0.346,1.143,0.424,1.803c0.081,0.712,0.104,1.43,0.095,2.143c-0.025,1.611-0.954,1.719,0.739,0.996
					c0.97-0.123,1.938-0.248,2.908-0.373c-2.336-0.268-3.745-6.318-4.321-8.044c-1.922,0.517-3.846,1.03-5.769,1.548
					c0.023,0.061,0.047,0.123,0.068,0.186c0.334,0.928,1.697,0.977,2.498,0.854c4.475-0.678,3.324-4.196,4.69-7.427
					c-0.579,0.523-1.16,1.046-1.739,1.569c0.023-0.01,0.046-0.021,0.07-0.031c3.666-1.645,0.31-3.598-2.293-2.43
					c-2.941,1.32-1.712,4.221-2.946,6.604c1.024-0.516,2.05-1.033,3.075-1.549c-0.027,0.004-0.054,0.008-0.083,0.012
					c0.833,0.284,1.666,0.57,2.5,0.854c-0.023-0.063-0.047-0.125-0.068-0.188c-0.739-2.045-6.425-0.424-5.769,1.548
					c0.979,2.936,2.156,7.594,5.189,9.205c2.107,1.117,5.541,0.42,6.581-1.891c1.765-3.926-0.106-11.342-5.543-9.616
					c-5.18,1.644-5.39,9.1-2.993,13.067c2.59,4.287,9.325,2.416,10.987-1.604c1.952-4.72,1.538-11.391-0.479-16.02
					c-1.691-3.886-6.134-5.193-9.38-2.063c-2.884,2.785-2.814,8.264-2.747,11.926c0.059,3.069,0.535,9.18,4.486,9.885
					c0.424,0.076,0.844,0.127,1.271,0.139C142.708,313.014,146.635,309.736,142.73,309.629L142.73,309.629z"/>
			</g>
		</g>
		<g>
			<path fill="#F6978F" d="M62.522,347.59c-2.589,0-5.189-0.787-7.58-2.084c-0.505,0.105-1.009,0.162-1.502,0.166
				c-0.01,0-0.018,0-0.029,0c-1.687,0-3.153-0.652-4.194-1.828c-3.774-1.182-7.129-3.182-8.998-5.936
				c-3.811-5.615-1.852-10.168,1.25-12.557c2.52-1.938,6.162-2.861,9.881-2.498c4.642-1.359,9.878-0.727,13.699,1.793
				c3.786,2.498,5.761,6.459,5.561,11.152c-0.155,3.604-2.284,6.447-5.914,7.998c0.536,0.303,0.925,0.846,1.001,1.506
				c0.126,1.09-0.655,2.08-1.748,2.205C63.475,347.564,62.999,347.59,62.522,347.59z M55.298,341.057
				c0.083,0.008,0.167,0.016,0.251,0.023c0.886-0.461,1.786-1.162,2.519-2.041c-1.736,0.244-3.63,0.158-5.422-0.197
				C53.456,339.654,54.352,340.404,55.298,341.057z M63.534,336.184c-0.105,1.021-0.4,2.051-0.89,3.063
				c-0.222,0.459-0.479,0.902-0.762,1.33c0-0.002,0.004-0.002,0.004-0.002c2.152-0.611,3.58-1.621,4.271-3.014
				c-0.22-0.123-0.422-0.287-0.589-0.498c-0.482-0.6-1.052-1.094-1.687-1.486C63.774,335.801,63.656,336.002,63.534,336.184z
				 M44.999,327.82c-0.404,0.203-0.773,0.434-1.1,0.686c-2.85,2.193-1.784,5.107-0.385,7.168c0.839,1.24,2.243,2.33,3.961,3.203
				c-1.057-1.479-1.879-3.037-2.396-4.588c-0.968-1.486-0.993-2.762-0.764-3.674c0.047-0.186,0.105-0.365,0.175-0.541
				C44.552,329.275,44.723,328.52,44.999,327.82z M55.079,335.146c1.75,0.107,3.438-0.098,4.445-0.619
				c-0.013-0.063-0.027-0.123-0.044-0.186C57.975,334.318,56.423,334.588,55.079,335.146z M48.694,332.496
				c0.204,0.238,0.484,0.525,0.877,0.855c0.14,0.117,0.291,0.229,0.453,0.336c0.457-0.426,0.976-0.824,1.553-1.191
				c1.182-0.752,2.542-1.32,3.984-1.678c-1.687-0.5-3.646-0.574-5.216-0.256c-0.96,0.195-1.561,0.492-1.88,0.721
				C48.501,331.652,48.576,332.055,48.694,332.496z M63.782,331.146c0.863,0.309,1.687,0.711,2.457,1.217
				c-0.682-2.174-2.106-3.553-3.382-4.395c-0.738-0.486-1.547-0.877-2.402-1.172c0.482,0.43,0.945,0.898,1.384,1.404
				C62.775,329.275,63.394,330.258,63.782,331.146z"/>
		</g>
		<g>
			<path fill="#F6978F" d="M175.519,337.049c-0.084,0-0.166-0.002-0.247-0.004c-4.198-0.08-7.707-2.188-9.924-5.873
				c-3.471-1.422-4.266-3.551-4.307-5.121c-0.05-1.965,1.09-3.777,2.733-5.295c0.505-1.443,1.356-2.766,2.55-3.926
				c4.405-4.283,12.871-5.51,19.277-2.795c4.921,2.088,7.74,6.195,7.726,11.27c-0.017,6.279-3.446,8.326-5.487,8.988
				c-1.331,0.43-2.816,0.529-4.357,0.377C181.123,336.156,178.304,337.049,175.519,337.049z M167.301,322.967
				c-0.231,1.309-0.035,2.773,0.593,4.381c1.819,4.643,5.057,5.672,7.454,5.717c0.674-0.004,1.362-0.053,2.042-0.186
				c-3.071-1.457-5.846-3.617-7.518-5.916c-1.146-1.578-1.699-3.174-1.641-4.643C167.894,322.535,167.583,322.752,167.301,322.967z
				 M172.228,322.809c0.097,0.654,0.537,1.361,0.865,1.814c1.847,2.539,5.849,5.02,9.408,5.848c0.382-0.311,0.736-0.645,1.059-0.996
				c-1.364-0.676-2.14-1.82-2.723-2.916c-0.515-0.969-0.147-2.176,0.822-2.691c0.05-0.027,0.101-0.051,0.151-0.074
				c-1.799-0.541-4.773-0.709-8.066-0.896C173.254,322.867,172.749,322.84,172.228,322.809z M189.234,326.877
				c-0.097,0.549-0.246,1.096-0.453,1.643C188.976,328.08,189.136,327.541,189.234,326.877z M187.54,320.146
				c1.03,1.381,1.629,2.9,1.784,4.465C189.192,322.695,188.488,321.244,187.54,320.146z"/>
		</g>
		<g>
			<g>
				<path d="M80.172,317.057c-0.614,0-1.218-0.283-1.609-0.816c-0.647-0.889-0.453-2.133,0.434-2.781l0.587-0.43
					c5.019-3.67,9.461-6.922,15.848-7.59c-4.068-4.105-11.626-6.137-16.373-4.836c-1.061,0.279-2.157-0.336-2.445-1.394
					c-0.292-1.062,0.333-2.155,1.392-2.447c7.318-1.998,19.215,1.88,23.013,9.708c0.307,0.637,0.257,1.385-0.132,1.971
					c-0.391,0.59-1.049,0.922-1.769,0.885c-7.18-0.354-11.378,2.672-17.182,6.916l-0.591,0.432
					C80.991,316.932,80.579,317.057,80.172,317.057z"/>
			</g>
			<g>
				<path d="M79.401,308.246c-0.96,0-1.769-0.207-2.404-0.855c-0.768-0.785-0.756-2.045,0.031-2.814
					c0.649-0.636,1.625-0.734,2.377-0.307c0.37,0.054,1.271-0.125,1.92-0.221c1.112-0.162,2.368-0.348,3.627-0.352
					c1.12-0.033,2.632,0.105,4.492,0.229c2.187,0.147,5.704,0.377,7.003,0.267c0.247-0.188,0.54-0.318,0.867-0.373
					c1.09-0.176,2.111,0.55,2.293,1.633c0.101,0.6-0.121,1.344-0.529,1.795c-0.964,1.068-2.354,1.152-9.901,0.652
					c-1.714-0.117-3.315-0.178-4.214-0.223c-0.974,0.002-2.081,0.166-3.059,0.309C80.983,308.123,80.147,308.246,79.401,308.246z"/>
			</g>
		</g>
		<g>
			<path fill="#FFFFFF" d="M460.099,265.644c10.668,3.103,3.346,22.097-2.981,28.305c-7.233,7.095-33.018,12.108-33.966-3.653
				c3.549,1.154,3.272,6.45,1.99,10.515c-2.941,9.323-12.996,12.501-20.807,13.208c-16.682,1.512-39.78-4.879-36.641-21.354
				c-5.802,28.715-65.992,19.506-55.705-4.393c-11.937,8.967-29.92-11.715-29.683-23.46c0.286-14.128,2.957-32.843,19.963-29.518
				c0.367-18.291,6.844-27.381,14.111-32.338c9.032-6.163,36.299-14.752,39.854,1.158c4.627-22.153,24.024-23.281,37.33-16.629
				c11.8,5.897,15.265,11.026,18.114,21.619c15.894-18.293,40.291,3.326,36.591,14.136c0,0,12.994-0.554,19.963,6.235
				C478.348,239.326,481.36,258.464,460.099,265.644z"/>
			<path d="M399.465,316.225c-10.428,0-23.897-2.813-30.428-10.704c-1.183-1.429-2.076-2.95-2.683-4.56
				c-5.726,8.371-16.964,11.549-27.017,11.551h-0.004c-12.369,0-23.714-4.615-28.236-11.484c-1.829-2.777-2.558-5.843-2.181-9.034
				c-5.741,1.605-12.77-1.147-18.965-7.466c-5.881-6.002-9.752-13.941-9.636-19.757c0.16-7.879,0.646-31.855,18.175-31.855
				c0.604,0,1.229,0.031,1.864,0.091c0.722-14.974,5.607-25.355,14.903-31.694c5.028-3.433,16.702-8.264,26.907-8.264
				c6.21,0,10.871,1.883,13.614,5.405c3.889-10.577,12.133-16.527,23.233-16.527c5.084,0,10.567,1.343,15.441,3.779
				c11.458,5.726,15.433,10.981,18.188,19.602c3.94-3.47,8.551-5.285,13.498-5.285c8.84,0,16.928,5.781,21.021,11.508
				c2.377,3.327,3.573,6.75,3.461,9.747c4.368,0.193,13.367,1.285,19,6.774c6.548,6.379,9.644,15.508,7.885,23.256
				c-1.043,4.596-4.171,10.609-12.903,14.684c1.185,1.168,2.025,2.686,2.485,4.518c2.025,8.051-3.728,20.102-8.579,24.861
				c-4.256,4.175-13.451,7.322-21.392,7.322c-3.893,0-7.222-0.748-9.814-2.189c-0.082,0.304-0.172,0.607-0.264,0.906
				c-3.681,11.66-16.98,14.09-22.527,14.592C402.881,316.148,401.183,316.225,399.465,316.225z M367.692,290.674
				c0.125,0,0.256,0.012,0.385,0.037c1.074,0.211,1.776,1.249,1.572,2.326c-0.718,3.764,0.108,7.109,2.454,9.945
				c4.655,5.627,15.396,9.262,27.361,9.262c1.597,0,3.175-0.07,4.691-0.209c4.752-0.43,16.128-2.445,19.086-11.824
				c0.269-0.848,0.475-1.713,0.608-2.541c-1.611-1.947-2.513-4.383-2.687-7.257c-0.039-0.657,0.25-1.291,0.771-1.692
				c0.517-0.402,1.201-0.52,1.832-0.319c2.871,0.935,4.383,3.749,4.228,7.792c2.555,2.063,6.313,2.518,9.125,2.518
				c7.599,0,15.573-3.209,18.604-6.184c4.039-3.963,9.081-14.787,7.507-21.047c-0.529-2.102-1.701-3.348-3.688-3.926
				c-0.834-0.243-1.414-1-1.435-1.868c-0.017-0.869,0.531-1.65,1.353-1.929c7.892-2.664,12.789-7.274,14.164-13.33
				c1.459-6.429-1.201-14.094-6.779-19.526c-5.551-5.409-15.853-5.683-17.86-5.683c-0.879,0-0.664,0.012-0.713,0.012
				c-0.628,0-1.221-0.295-1.596-0.801c-0.393-0.527-0.502-1.213-0.29-1.835c0.77-2.245-0.151-5.516-2.463-8.75
				c-3.502-4.9-10.356-9.842-17.782-9.842c-4.904,0-9.265,2.155-12.959,6.408c-0.482,0.554-1.222,0.795-1.949,0.634
				c-0.718-0.166-1.285-0.711-1.476-1.423c-2.59-9.628-5.536-14.585-17.082-20.355c-4.331-2.165-9.185-3.358-13.662-3.358
				c-6.327,0-17.448,2.42-20.83,18.614c-0.19,0.917-0.997,1.579-1.934,1.584c-0.004,0-0.011,0-0.015,0
				c-0.931,0-1.738-0.645-1.94-1.557c-1.115-4.99-5.197-7.52-12.129-7.52c-8.378,0-19.327,3.93-24.664,7.572
				c-8.613,5.874-12.945,15.928-13.242,30.735c-0.011,0.587-0.283,1.139-0.74,1.508c-0.459,0.367-1.047,0.519-1.633,0.404
				c-11.49-2.256-17.166,6.616-17.59,27.605c-0.095,4.739,3.399,11.685,8.5,16.888c4.192,4.28,8.821,6.732,12.698,6.732
				c1.933,0,3.715-0.602,5.3-1.793c0.721-0.543,1.717-0.531,2.426,0.026s0.953,1.524,0.598,2.353
				c-1.531,3.555-1.327,6.846,0.603,9.779c3.757,5.707,14.002,9.693,24.913,9.693c0.002,0,0.002,0,0.002,0
				c11.178-0.002,23.985-4.273,26.406-16.262C365.933,291.326,366.763,290.674,367.692,290.674z"/>
		</g>
		<g>
			<path fill="#FCDFEB" d="M464.09,270.215c10.666,3.104,3.347,22.1-2.985,28.309c-7.233,7.092-33.017,12.107-33.963-3.656
				c3.547,1.156,3.271,6.447,1.987,10.514c-2.94,9.324-12.994,12.504-20.804,13.211c-16.685,1.514-39.78-4.877-36.642-21.354
				c-5.803,28.713-65.993,19.504-55.703-4.395c-11.94,8.971-29.92-11.713-29.682-23.461c0.286-14.126,2.956-32.841,19.957-29.518
				c0.371-18.292,6.848-27.378,14.112-32.336c9.035-6.163,39.996-12.676,43.552,3.236c4.629-22.151,21.726-24.448,38.81-16.211
				c9.213,4.438,13.889,7.582,16.736,18.175c20.601-15.267,36.801,11.619,32.797,15.083c0,0,12.989-0.554,19.959,6.235
				C482.336,243.902,485.349,263.037,464.09,270.215z"/>
		</g>
		<g>
			<path fill="#F6978F" d="M318.026,278.295c-2.146,0-4.255-0.455-6.091-1.381c-3.562-1.795-5.688-5.049-5.992-9.164
				c-0.224-3.047,1.199-5.665,3.959-7.406c-0.35-0.27-0.61-0.655-0.721-1.116c-0.254-1.071,0.41-2.142,1.479-2.396
				c2.582-0.604,5.34-0.231,7.927,0.789c0.407-0.132,0.817-0.226,1.225-0.274c1.499-0.188,2.891,0.234,3.951,1.162
				c3.354,0.652,6.428,2.041,8.312,4.223c3.928,4.545,2.662,8.764,0.169,11.193c-1.984,1.932-5.034,3.105-8.288,3.182
				C322.081,277.895,320.038,278.295,318.026,278.295z M310.925,270.813c0.771,1.276,1.851,2.065,2.803,2.546
				c0.216,0.109,0.438,0.209,0.665,0.299c-0.049-0.042-0.096-0.084-0.145-0.127c-0.88-0.804-1.509-1.564-1.939-2.278
				C311.836,271.139,311.376,270.992,310.925,270.813z M329.298,270.032c0.016,0.428-0.006,0.847-0.064,1.251
				c0.082-0.067,0.159-0.14,0.233-0.211c1.641-1.6,1.506-3.532-0.404-5.742c-0.594-0.686-1.442-1.279-2.461-1.764
				c0.696,0.884,1.281,1.809,1.724,2.746c1.021,1.234,1.175,2.391,1.063,3.249C329.368,269.721,329.337,269.879,329.298,270.032z
				 M320.623,270.311c0.677,0.037,1.391-0.008,2.107-0.131c1.283-0.22,2.074-0.625,2.457-0.913
				c-0.059-0.235-0.139-0.483-0.241-0.749c-0.179-0.156-0.418-0.346-0.74-0.56c-0.065-0.04-0.131-0.081-0.198-0.12
				c-0.321,0.359-0.681,0.703-1.082,1.029C322.238,269.428,321.461,269.912,320.623,270.311z M310.208,265.651
				c0.138,0.081,0.268,0.181,0.386,0.3c0.368,0.363,0.78,0.662,1.223,0.901c0.033-0.075,0.066-0.149,0.104-0.222
				c-0.004-0.889,0.151-1.804,0.471-2.719c0.06-0.178,0.128-0.354,0.199-0.527C311.407,263.992,310.61,264.749,310.208,265.651z
				 M318.581,262.05c-0.467,0.331-0.928,0.755-1.332,1.246c0.987-0.19,2.023-0.267,3.067-0.257c-0.514-0.361-1.048-0.695-1.6-0.993
				C318.672,262.048,318.625,262.048,318.581,262.05z"/>
		</g>
		<g>
			<path fill="#F6978F" d="M427.719,278.796c-2.859,0-5.792-0.681-8.255-2.06c-4.099-2.296-6.165-6.158-5.665-10.596
				c0.621-5.521,3.861-6.994,5.735-7.381c1.182-0.239,2.462-0.197,3.763,0.071c2.242-1.073,4.824-1.561,7.285-1.241
				c3.638,0.47,6.489,2.617,8.079,6.004c3.036,1.694,3.349,3.83,3.249,4.99c-0.147,1.769-1.3,3.264-2.89,4.447
				c-0.582,1.18-1.446,2.225-2.577,3.107C434.181,277.9,431,278.796,427.719,278.796z M429.258,261.477
				c2.198,1.494,4.084,3.408,5.186,5.339c0.743,1.302,1.092,2.577,1.05,3.741c0.093-0.051,0.183-0.103,0.271-0.152
				c0.272-1.02,0.229-2.193-0.126-3.514c-1.071-3.971-3.618-5.104-5.566-5.354C429.804,261.502,429.532,261.482,429.258,261.477z
				 M425.821,269.1c0.576,0.151,1.679,0.295,2.677,0.424c0.851,0.11,1.836,0.238,2.97,0.413c-0.101-0.438-0.339-0.896-0.482-1.146
				c-1.286-2.255-4.322-4.655-7.16-5.69c-0.894,0.598-1.639,1.335-2.128,2.162c0.628-0.815,1.577-1,2.332-1.021
				c0.348-0.104,0.729-0.107,1.104-0.004c1.871,0.534,1.781,1.934,1.711,2.352c-0.075,0.43-0.319,0.807-0.655,1.092
				C425.996,268.313,425.874,268.786,425.821,269.1z M421.235,266.344c-0.269,1.012-0.074,2.037,0.576,3.057
				c0.002-0.324,0.035-0.664,0.098-1.02c-0.218-0.199-0.395-0.447-0.512-0.739C421.228,267.208,421.172,266.766,421.235,266.344z"/>
		</g>
		<g>
			<g>
				<path fill="#FFFFFF" d="M99.076,327.521c0,0,0.661,18.947,16.746,17.486c16.004-1.459,16.99-17,16.99-17
					s-15.584-0.129-20.733-0.627S99.076,327.521,99.076,327.521z"/>
				<path d="M114.095,347.078L114.095,347.078c-12.913,0-16.771-12.746-17.006-19.486c-0.039-1.063,0.765-1.967,1.827-2.055
					c0.169-0.014,4.198-0.338,8.434-0.338c1.903,0,3.559,0.068,4.923,0.201c5.002,0.482,20.402,0.615,20.556,0.617
					c0.548,0.004,1.069,0.234,1.442,0.633c0.372,0.402,0.564,0.939,0.529,1.484c-0.012,0.172-1.294,17.26-18.794,18.855
					C115.342,347.051,114.708,347.078,114.095,347.078z M101.257,329.371c0.601,4.195,3.043,13.725,12.837,13.725l0,0
					c0.498,0,1.012-0.023,1.547-0.072c10.908-0.992,14-9.123,14.861-13.051c-4.554-0.055-14.587-0.221-18.616-0.611
					c-1.236-0.119-2.764-0.182-4.538-0.182C105.067,329.18,102.808,329.281,101.257,329.371z"/>
			</g>
			<g>
				<path fill="#F6978F" d="M102.439,330.625c0,0-0.929,15.879,15.156,14.418c16.004-1.459,14.416-15.713,14.416-15.713
					s-9.267,1.238-14.416,0.74C112.446,329.57,102.439,330.625,102.439,330.625z"/>
			</g>
			<g>
				<ellipse cx="133.764" cy="327.215" rx="1.746" ry="1.828"/>
			</g>
			<g>
				<ellipse cx="98.456" cy="326.719" rx="1.745" ry="1.826"/>
			</g>
		</g>
		<g>
			<g>
				<path fill="#FFFFFF" d="M362.096,264.017c0,0,0.566,18.946,14.328,17.485c13.693-1.458,14.535-16.999,14.535-16.999
					s-13.333-0.131-17.737-0.628C368.815,263.377,362.096,264.017,362.096,264.017z"/>
				<path d="M374.947,283.572C374.946,283.572,374.946,283.572,374.947,283.572c-11.279,0-14.639-12.753-14.841-19.496
					c-0.031-1.049,0.758-1.941,1.801-2.04c0.146-0.016,3.617-0.343,7.267-0.343c1.646,0,3.084,0.068,4.271,0.203
					c4.254,0.481,17.401,0.613,17.534,0.615c0.542,0.006,1.061,0.234,1.433,0.629c0.371,0.396,0.565,0.927,0.536,1.469
					c-0.324,5.961-4.148,17.576-16.313,18.871C376.051,283.542,375.489,283.572,374.947,283.572z M364.241,265.848
					c0.498,4.179,2.529,13.744,10.705,13.744l0,0c0.407,0,0.829-0.021,1.269-0.068c9.172-0.979,11.769-9.137,12.487-13.06
					c-4.018-0.06-12.316-0.229-15.704-0.61c-1.04-0.119-2.326-0.18-3.824-0.18C367.354,265.674,365.549,265.764,364.241,265.848z"/>
			</g>
			<g>
				<path fill="#F6978F" d="M364.975,267.119c0,0-0.795,15.879,12.964,14.417c13.694-1.458,12.334-15.712,12.334-15.712
					s-7.926,1.238-12.334,0.74C373.534,266.065,364.975,267.119,364.975,267.119z"/>
			</g>
			<g>
				<path d="M393.266,263.71c0,1.009-0.666,1.827-1.493,1.827c-0.823,0-1.492-0.818-1.492-1.827s0.669-1.827,1.492-1.827
					C392.6,261.883,393.266,262.701,393.266,263.71z"/>
			</g>
			<g>
				<ellipse cx="361.566" cy="263.212" rx="1.493" ry="1.827"/>
			</g>
		</g>
		<g>
			<g>
				<path d="M348.501,253.281c0.298,0.009-0.502-0.492-0.805-1.041c-0.455-0.824-0.688-1.772-0.904-2.682
					c-0.544-2.306-0.587-4.741-0.454-7.093c0.116-2.075,0.456-4.185,1.211-6.128c0.957-2.465-0.586,1.154-2.178-0.076
					c0.973,0.752,1.518,1.968,1.936,3.08c1.011,2.681,1.218,5.764,1.126,8.596c-0.043,1.329-0.239,2.645-0.544,3.939
					c-0.129,0.542-0.315,1.08-0.563,1.58c-0.803,1.604-0.44-0.983,1.608-0.096c-2.815-1.221-2.621-5.514-2.147-7.943
					c0.117-0.601,0.319-1.191,0.603-1.731c-1.102,0.175-2.202,0.349-3.304,0.521c0.343,0.373,0.589,0.807,0.736,1.299
					c0.289,0.663,0.369,1.27,0.474,1.967c0.115,0.764-0.308,2.352,0.643,1.813c1.185-0.235,2.371-0.471,3.556-0.706
					c-2.188-0.283-4.244-4.929-4.827-6.549c-1.923,0.516-3.847,1.029-5.769,1.547c0.022,0.063,0.047,0.123,0.067,0.186
					c0.334,0.928,1.697,0.977,2.498,0.854c4.476-0.678,3.321-4.198,4.69-7.426c-0.58,0.523-1.159,1.045-1.738,1.568
					c0.023-0.009,0.047-0.021,0.07-0.031c3.67-1.639,0.311-3.592-2.294-2.43c-2.942,1.314-1.714,4.226-2.948,6.604
					c1.024-0.517,2.051-1.034,3.074-1.549c-0.026,0.004-0.054,0.007-0.083,0.011c0.834,0.284,1.665,0.57,2.499,0.854
					c-0.022-0.063-0.046-0.125-0.067-0.188c-0.744-2.063-6.463-0.386-5.769,1.547c1.036,2.876,2.856,6.061,5.625,7.647
					c1.846,1.06,6.008,0.665,6.565-1.907c1.039-4.807-2.354-10.883-7.652-7.255c-4.023,2.754-3.625,10.823,0.076,13.575
					c4.116,3.059,8.938-0.223,10.147-4.469c1.371-4.814,0.843-11.412-1.729-15.729c-2.151-3.605-7.164-3.104-9.435,0.152
					c-3.118,4.474-4.149,20.797,3.774,21.012C348.479,256.666,352.405,253.389,348.501,253.281L348.501,253.281z"/>
			</g>
		</g>
		<g>
			<g>
				<path d="M398.93,254.217c0.3,0.008-0.5-0.494-0.803-1.041c-0.455-0.824-0.688-1.775-0.904-2.684
					c-0.544-2.305-0.586-4.739-0.454-7.092c0.116-2.078,0.454-4.186,1.211-6.13c0.958-2.462-0.585,1.157-2.177-0.076
					c0.806,0.626,1.329,1.615,1.728,2.524c1.533,3.523,2.859,12.166-0.19,15.279c1.729-1.767,2.683,0.016,0.974-1.5
					c-0.558-0.494-0.793-1.266-1.024-1.943c-0.494-1.45-0.406-3.054-0.199-4.543c0.086-0.636,0.277-1.248,0.476-1.854
					c0.614-1.868-3.853-1.034-2.733,0.387c0.471,0.594,0.692,1.57,0.805,2.305c0.226,1.442-0.584,2.338,1.226,1.429
					c0.97-0.124,1.937-0.249,2.907-0.374c-2.118-0.338-4.084-4.299-4.673-5.941c-1.923,0.518-3.847,1.031-5.769,1.547
					c0.023,0.063,0.047,0.125,0.068,0.188c0.334,0.927,1.697,0.974,2.497,0.854c4.475-0.675,3.323-4.201,4.69-7.427
					c-0.58,0.522-1.158,1.046-1.738,1.568c0.023-0.01,0.047-0.021,0.07-0.031c3.662-1.652,0.31-3.603-2.293-2.43
					c-2.941,1.328-1.711,4.218-2.949,6.604c1.024-0.517,2.051-1.031,3.075-1.549c-0.027,0.004-0.055,0.008-0.081,0.012
					c0.831,0.283,1.663,0.569,2.497,0.854c-0.023-0.063-0.047-0.125-0.068-0.189c-0.744-2.06-6.46-0.387-5.769,1.547
					c1.354,3.775,8.11,11.845,11.879,5.567c1.172-1.949-0.033-5.079-1.021-6.805c-1.234-2.155-4.684-1.396-6.319-0.276
					c-4.021,2.755-3.625,10.828,0.076,13.576c4.119,3.058,8.938-0.221,10.147-4.47c1.371-4.814,0.846-11.409-1.729-15.726
					c-2.151-3.605-7.164-3.106-9.435,0.15c-3.119,4.476-4.149,20.798,3.776,21.015C398.91,257.601,402.836,254.324,398.93,254.217
					L398.93,254.217z"/>
			</g>
		</g>
	</g>
</g>
</svg>
