<?xml version="1.0" encoding="utf-8"?>
<!-- Generator: Adobe Illustrator 16.0.0, SVG Export Plug-In . SVG Version: 6.00 Build 0)  -->
<!DOCTYPE svg PUBLIC "-//W3C//DTD SVG 1.1//EN" "http://www.w3.org/Graphics/SVG/1.1/DTD/svg11.dtd">
<svg version="1.1" id="Layer_1" xmlns="http://www.w3.org/2000/svg" xmlns:xlink="http://www.w3.org/1999/xlink" x="0px" y="0px"
	 width="480px" height="480px" viewBox="0 0 480 480" enable-background="new 0 0 480 480" xml:space="preserve">
<g>
	<g>
		<g>
			<path fill="#FFFFFF" d="M238.095,56.571l40.684-39.901c0,0,13.038-6.644,39.517,0.323c21.807,5.74,27.221,27.416,27.221,27.416
				l-12.122,62.785L238.095,56.571z"/>
			<path d="M333.395,109.624c-0.392,0-0.783-0.095-1.14-0.285l-95.299-50.622c-0.686-0.363-1.156-1.03-1.265-1.797
				c-0.112-0.767,0.149-1.541,0.703-2.084l40.684-39.9c0.176-0.173,0.378-0.318,0.599-0.431c0.251-0.127,6.269-3.124,18.052-3.124
				c7.158,0,14.958,1.097,23.188,3.261c22.935,6.038,28.724,28.236,28.958,29.178c0.088,0.344,0.098,0.703,0.029,1.049
				l-12.123,62.785c-0.145,0.757-0.641,1.4-1.336,1.733C334.111,109.545,333.753,109.624,333.395,109.624z M242.168,55.982
				l89.463,47.523l11.391-59c-0.939-3.209-6.765-20.273-25.346-25.162c-7.823-2.059-15.208-3.102-21.948-3.102
				c-9.087,0-14.292,1.932-15.555,2.465L242.168,55.982z"/>
		</g>
		<g>
			<path fill="#FFFFFF" d="M238.095,56.571l40.684-39.901c0,0,13.038-6.644,39.517,0.323c21.807,5.74,27.221,27.416,27.221,27.416
				l-12.122,62.785L238.095,56.571z"/>
			<path d="M333.395,109.624c-0.392,0-0.783-0.095-1.14-0.285l-95.299-50.622c-0.686-0.363-1.156-1.03-1.265-1.797
				c-0.112-0.767,0.149-1.541,0.703-2.084l40.684-39.9c0.176-0.173,0.378-0.318,0.599-0.431c0.251-0.127,6.269-3.124,18.052-3.124
				c7.158,0,14.958,1.097,23.188,3.261c22.935,6.038,28.724,28.236,28.958,29.178c0.088,0.344,0.098,0.703,0.029,1.049
				l-12.123,62.785c-0.145,0.757-0.641,1.4-1.336,1.733C334.111,109.545,333.753,109.624,333.395,109.624z M242.168,55.982
				l89.463,47.523l11.391-59c-0.939-3.209-6.765-20.273-25.346-25.162c-7.823-2.059-15.208-3.102-21.948-3.102
				c-9.087,0-14.292,1.932-15.555,2.465L242.168,55.982z"/>
		</g>
		<g>
			<path fill="#D4DAEF" d="M244.16,61.292l40.684-39.901c0,0,13.039-6.644,39.517,0.323c21.807,5.74,27.221,27.416,27.221,27.416
				l-12.122,62.785L244.16,61.292z"/>
		</g>
		<g>
			<path fill="#FFFFFF" d="M151.873,235.063c-53.093-34.489-44.097-97.276-10.33-138.877C164.334,68.106,194,51.65,240.248,52.574
				c59.016,1.177,96.812,20.309,114.774,52.794c23.604,42.685,12.493,104.15-34.432,135.435
				c58.81,6.713,87.482,58.025,95.264,95.261c16.067,76.898-25.12,106.978-63.127,120.515
				c-36.046,12.839-230.912,28.377-275.458-36.729c-29.841-43.613-17.577-97.115,13.772-133.138
				c21.234-24.398,30.558-33.717,59.208-44.803L151.873,235.063z"/>
			<path d="M244.022,470.442c-50.449,0-139.456-6.395-168.758-49.223C43.488,374.782,59.373,319.4,89.209,285.116
				c21.7-24.936,31.261-34.138,58.971-45.009l0.938-3.952c-20.285-13.66-32.851-32.654-36.381-55.026
				c-4.408-27.952,5.657-60.278,26.919-86.474c25.4-31.296,57.176-45.377,100.64-44.513c58.351,1.166,97.665,19.35,116.854,54.047
				c24.679,44.629,11.002,103.873-30.19,135.064c54.316,9.308,83.077,57.081,91.273,96.313
				c12.938,61.919-8.827,103.403-64.688,123.301C337.569,464.558,292.235,470.442,244.022,470.442z M236.581,54.966
				c-39.877,0-69.477,13.586-93.151,42.751c-20.409,25.144-30.088,56.044-25.892,82.655c3.392,21.496,15.72,39.701,35.659,52.652
				c0.861,0.56,1.277,1.6,1.04,2.599l-1.624,6.845c-0.183,0.781-0.741,1.418-1.486,1.707
				c-27.599,10.677-36.841,19.527-58.254,44.131c-28.607,32.874-43.908,85.873-13.599,130.17
				c28.042,40.985,115.257,47.104,164.747,47.104c47.687,0,92.304-5.742,107.889-11.294c53.212-18.951,73.927-58.56,61.564-117.728
				c-8.167-39.086-37.468-86.984-93.16-93.343c-1.014-0.114-1.847-0.852-2.086-1.842c-0.24-0.992,0.163-2.03,1.013-2.595
				c48.188-32.127,54.988-93.654,33.654-132.235c-18.289-33.074-56.206-50.414-112.695-51.541
				C238.98,54.98,237.777,54.966,236.581,54.966z"/>
		</g>
		<g>
			<path d="M206.78,168.077c-1.557,0-3.152-0.34-4.728-1.025c-2.903-1.261-5.049-4.593-6.203-9.635
				c-1.6-6.99-1.123-17.093,2.438-21.225c5.108-5.924,9.556-5.072,11.752-4.038c3.731,1.754,6.259,6.411,7.432,11.667
				c1.168,2.07,1.97,5.115,1.84,9.592c-0.157,5.267-2.915,10.489-6.867,12.998C210.699,167.519,208.771,168.077,206.78,168.077z
				 M210.798,159.926c0.002,0.085-0.002,0.168-0.009,0.254c1.365-1.844,1.989-4.166,2.274-5.839c0.24-1.419,0.334-2.901,0.304-4.377
				C213.153,153.503,212.173,157.185,210.798,159.926z M206.967,145.193c0.465,0.102,0.902,0.271,1.301,0.499
				c-0.078-0.361-0.173-0.691-0.287-0.985C207.644,144.841,207.305,145.005,206.967,145.193z M200.497,142.845
				c-0.14,0.593-0.261,1.237-0.361,1.918c0.038-0.05,0.076-0.097,0.116-0.147C200.312,144.003,200.393,143.41,200.497,142.845z
				 M210.105,139.403c0.216,0,0.432,0.01,0.646,0.024c-0.797-1.367-1.742-2.386-2.782-2.875c-1.116-0.529-2.372-0.292-3.755,0.693
				c1.367-0.446,3.342-0.244,5.82,2.16C210.058,139.403,210.082,139.403,210.105,139.403z"/>
		</g>
		<g>
			<path d="M268.758,168.077c-1.555,0-3.149-0.34-4.726-1.025c-2.905-1.261-5.052-4.591-6.205-9.632
				c-1.6-6.99-1.123-17.093,2.438-21.228c5.108-5.924,9.552-5.065,11.75-4.04c3.733,1.757,6.262,6.414,7.434,11.669
				c1.168,2.07,1.971,5.115,1.84,9.592c-0.156,5.267-2.915,10.492-6.867,13C272.677,167.519,270.749,168.077,268.758,168.077z
				 M272.776,159.923c0.003,0.085-0.002,0.171-0.01,0.254c1.365-1.845,1.989-4.164,2.274-5.839c0.239-1.415,0.335-2.894,0.304-4.368
				C275.131,153.508,274.15,157.185,272.776,159.923z M268.945,145.193c0.468,0.102,0.902,0.268,1.301,0.499
				c-0.078-0.361-0.173-0.691-0.287-0.985C269.622,144.841,269.282,145.005,268.945,145.193z M262.478,142.843
				c-0.143,0.594-0.264,1.239-0.366,1.92c0.041-0.047,0.079-0.097,0.119-0.147C262.29,144.001,262.37,143.408,262.478,142.843z
				 M272.083,139.403c0.216,0,0.433,0.01,0.646,0.024c-0.797-1.367-1.742-2.386-2.784-2.875c-1.115-0.532-2.373-0.29-3.755,0.693
				c1.374-0.439,3.34-0.247,5.822,2.16C272.036,139.403,272.06,139.403,272.083,139.403z"/>
		</g>
		<g>
			<g>
				<path d="M234.459,223.055c-9.549,0-17.451-2.813-23.53-8.381c-11.911-10.919-12.362-28.375-12.376-29.11
					c-0.023-1.341,1.042-2.447,2.383-2.473c0.017,0,0.033,0,0.047,0c1.32,0,2.402,1.056,2.431,2.38
					c0.002,0.162,0.451,16.16,10.826,25.64c5.796,5.298,13.684,7.641,23.456,6.967c33.464-2.312,36.688-30.758,36.809-31.968
					c0.133-1.334,1.3-2.31,2.655-2.179c1.334,0.13,2.31,1.313,2.182,2.649c-0.031,0.337-3.662,33.746-41.308,36.35
					C236.816,223.012,235.625,223.055,234.459,223.055z"/>
			</g>
			<g>
				<circle cx="200.982" cy="184.685" r="4.672"/>
			</g>
			<g>
				<path d="M280.5,184.685c0,2.581-2.089,4.674-4.671,4.674c-2.583,0-4.672-2.093-4.672-4.674c0-2.58,2.089-4.673,4.672-4.673
					C278.411,180.012,280.5,182.105,280.5,184.685z"/>
			</g>
		</g>
		<g>
			<path fill="#F6978F" d="M168.263,206.146c-7.529,0-15.509-2.585-19.739-8.507c-1.944-2.725-4.354-8.042-1.474-15.571
				c-1.042-4.982,0.475-9.447,4.277-12.419c7.66-5.986,22.364-4.223,31.294,1.175c7.375,4.46,10.85,11.166,9.53,18.398
				c-1.477,8.078-7.885,14.135-17.147,16.205C172.884,205.898,170.596,206.146,168.263,206.146z M182.405,184.398
				c0.166,1.711,0.028,4.472-1.783,7.297c0.935-1.116,1.649-2.502,1.963-4.221C182.78,186.406,182.721,185.381,182.405,184.398z
				 M167.409,182.836c2.374,0,4.351,1.702,4.775,3.952c0.392-0.47,0.622-0.98,0.537-1.507c-0.333-2.046-3.634-4.914-7.555-5.685
				c-3.387-0.676-5.92,0.328-7.532,2.958c-0.311,0.508-0.588,1.002-0.835,1.483c2.746-0.795,6.271-1.191,10.601-1.201
				C167.399,182.836,167.406,182.836,167.409,182.836z"/>
		</g>
		<g>
			<path fill="#F6978F" d="M309.613,207.244c-1.196,0-2.55-0.197-3.979-0.539c-4.773,0.104-8.903-1.709-11.707-5.12
				c-2.295-1.459-4.14-2.993-5.061-4.32c-4.908-7.066-3.482-11.059-1.115-17.677l0.118-0.332
				c3.793-10.601,14.143-15.163,27.727-12.212c9.288,2.02,19.979,9.404,19.535,23.573c-0.09,2.853-0.365,11.533-6.639,14.382
				c-3.817,1.73-7.929,0.515-11.904-1.797c-0.43,0.275-0.866,0.534-1.308,0.776c-0.599,1.261-1.666,2.281-3.076,2.844
				C311.477,207.111,310.598,207.244,309.613,207.244z M300.762,194.348c1.84,0.969,3.985,1.923,5.761,2.54
				c0.028-0.002,0.057-0.007,0.088-0.012c0.354-0.055,0.712-0.131,1.072-0.226c-0.009-0.01-0.019-0.017-0.028-0.024
				c-0.797-0.655-1.557-1.279-2.264-1.837c-1.178-0.928-2.517-1.437-3.813-1.928c-0.271-0.102-0.558-0.211-0.857-0.332
				C300.294,192.986,300.304,193.437,300.762,194.348z M323.791,195.958c0.221,0.066,0.422,0.112,0.604,0.126
				c0.188-0.33,0.537-1.137,0.779-2.815C324.775,194.208,324.313,195.105,323.791,195.958z M308.799,180.439
				c2.744,0,5.523,0.401,8.102,1.251c-0.499-2.585-1.693-4.247-2.754-4.719c-1.545-0.698-3.758,1.189-5.317,3.174
				c-0.078,0.1-0.154,0.199-0.229,0.294C308.666,180.439,308.732,180.439,308.799,180.439z"/>
		</g>
		<g>
			<path d="M235.819,323.372c-1.431,0-2.894-0.119-4.384-0.358c-9.11,1.357-16.431-2.943-19.604-11.526
				c-3.356-9.07-1.223-22.343,7.301-27.644c10.829-6.738,21.952-5.255,31.308,4.171c4.441,4.479,7.145,10.994,7.052,17.002
				c-0.07,4.564-1.739,8.521-4.825,11.445C247.822,321.058,242.121,323.372,235.819,323.372z M224.184,314.663
				c0.398,0,0.805,0.078,1.194,0.247c9.319,3.994,16.872,3.057,23.11-2.858c1.898-1.799,2.884-4.196,2.929-7.128
				c0.066-4.365-2.008-9.321-5.291-12.628c-7.36-7.422-15.367-8.53-23.784-3.292c-5.255,3.269-7.548,12.979-4.811,20.375
				c0.7,1.893,2.055,4.439,4.576,6.104C222.669,314.957,223.412,314.663,224.184,314.663z"/>
		</g>
		<g>
			<path d="M230.981,397.619c-4.488,0-8.768-1.861-12.386-5.457c-0.004-0.005-0.009-0.01-0.014-0.015
				c-3.629-2.242-6.703-6.076-8.787-11.089c-2.86-6.877-3.857-16.625,0.366-22.901c3.32-4.939,9.143-8.236,15.977-9.046
				c7.188-0.843,14.197,1.135,18.747,5.314c6.836,6.283,9.554,14.952,7.46,23.784c-2.126,8.973-8.815,16.502-16.646,18.735
				C234.115,397.396,232.536,397.619,230.981,397.619z M227.198,390.79c2.169,0.874,4.477,0.982,6.834,0.312
				c5.692-1.624,10.791-7.501,12.4-14.292c0.923-3.897,1.417-11.405-5.659-17.909c-3.214-2.95-8.552-4.387-13.921-3.753
				c-5.073,0.601-9.319,2.935-11.65,6.399c-2.485,3.696-2.4,10.919,0.204,17.178c2.196,5.281,5.604,8.726,9.35,9.447
				C226.084,388.429,227.043,389.514,227.198,390.79z"/>
		</g>
		<g>
			<path d="M235.805,322.76c-1.422,0-2.875-0.121-4.358-0.363c-0.002,0.002-0.007,0.002-0.012,0.002
				c-8.83,1.367-15.956-2.798-19.034-11.123c-3.273-8.844-1.22-21.771,7.052-26.917c10.567-6.572,21.419-5.122,30.556,4.086
				c4.332,4.364,6.967,10.712,6.876,16.563c-0.068,4.396-1.671,8.206-4.636,11.014C247.523,320.502,241.962,322.76,235.805,322.76z
				 M224.181,315.271c0.32,0,0.646,0.062,0.959,0.197c9.425,4.04,17.422,3.038,23.764-2.975c2.022-1.915,3.072-4.46,3.119-7.56
				c0.069-4.52-2.076-9.648-5.466-13.067c-7.589-7.649-15.844-8.789-24.537-3.38c-5.573,3.468-7.938,13.328-5.063,21.104
				c0.776,2.096,2.319,4.956,5.25,6.688C222.669,315.639,223.41,315.271,224.181,315.271z"/>
		</g>
		<g>
			<path d="M230.991,397.009c-4.332,0-8.469-1.799-11.968-5.278c-0.019-0.02-0.04-0.041-0.059-0.06
				c-3.546-2.17-6.561-5.922-8.607-10.845c-3.363-8.085-3.24-17.058,0.306-22.332c3.221-4.79,8.889-7.989,15.545-8.777
				c7.009-0.838,13.846,1.095,18.266,5.158c6.667,6.129,9.321,14.583,7.279,23.195c-2.077,8.766-8.597,16.116-16.221,18.291
				C234.008,396.796,232.486,397.009,230.991,397.009z M226.612,391.206c2.39,1.059,4.951,1.231,7.586,0.479
				c5.894-1.681,11.167-7.741,12.825-14.736c0.954-4.025,1.465-11.782-5.839-18.495c-3.34-3.069-8.844-4.569-14.403-3.912
				c-5.248,0.622-9.651,3.053-12.082,6.666c-2.592,3.852-2.53,11.317,0.145,17.75c2.279,5.474,5.849,9.05,9.798,9.81
				C225.821,388.996,226.638,390.043,226.612,391.206z"/>
		</g>
		<g>
			<path fill="#D4DAEF" d="M237.131,324.718c-20.29,3.114-22.388-26.074-10.33-33.572c9.629-5.991,19.207-4.672,27.546,3.73
				c6,6.046,9.141,17.613,2.295,24.103c-8.635,8.187-18.564,6.803-26.397,3.444"/>
		</g>
		<g>
			<path fill="#D4DAEF" d="M230.246,395.877c-11.602-2.236-17.387-22.552-11.5-31.304c6.347-9.439,22.41-10.294,30.145-3.188
				c19.663,18.068-5.583,49.751-22.089,33.343"/>
		</g>
		<g>
			<path fill="#FFFFFF" d="M104.125,92.97c-0.835-12.029-5.512-11.697-9.141-11.927c-3.651-0.232-7.166-1.875-10.618,2.877
				l-12.784-6.29l11.75-7.793c6.537,5.704,14.721-2.393,14.721-2.393s8.365-16.428-2.281-19.917
				c-10.192-3.342-14.303-0.838-16.214,2.257c-1.918,3.114-5.021,5.443-2.447,10.727l-10.39,7.481V57.594
				c1.296-0.591,2.547-1.296,3.665-2.136c5.868-4.398,6.599-12.464,0-18.324c-7.61-6.77-17.593-2.937-21.992,4.396
				c-3.406,5.68,2.418,13.992,5.22,17.453l0.437,10.021l-12.072-5.941c0.05-1.419-0.251-3.636-0.503-5.011
				c-1.306-7.216-11.526-10.19-16.54-7.351c-4.669,2.646-8.794,6.461-9.02,10.693c-0.204,3.803,3.138,7.968,5.308,11.386
				c3.551,5.592,12.728-0.076,17.076-1.028l13.254,7.166l-12.775,9.203c-1.234-0.712-7.94-1.555-9.331-1.668
				c-4.178-0.333-10.176,5.269-10.024,11.028c0.266,10.183,4.149,14.645,12.694,14.536c13.031-0.168,11.396-12.281,12.599-16.568
				l10.188-6.758l0.608,13.959c-8.434,2.03-6.385,13.656-6.385,13.656s4.398,6.599,6.596,7.332c2.201,0.733,8.799,0.733,11.73,0
				c2.932-0.733,5.865-7.332,6.597-12.464c0.52-3.622-1.534-7.244-7.33-8.201V87.124l12.333,6.672
				c-1.96,8.453,9.032,11.868,9.032,11.868s9.886-0.031,11.529-1.671C101.255,102.356,104.334,95.982,104.125,92.97z"/>
			<path d="M61.316,126.619c-1.621,0-4.6-0.088-6.361-0.677c-2.602-0.866-6.034-5.566-7.85-8.289
				c-0.188-0.28-0.313-0.596-0.37-0.926c-0.776-4.403-0.313-12.853,6.271-15.787l-0.342-7.847l-5.777,3.833
				c-0.093,0.56-0.171,1.237-0.251,1.939c-0.622,5.388-1.783,15.417-14.486,15.581l-0.335,0.002c-9.675,0-14.524-5.53-14.821-16.905
				c-0.088-3.323,1.417-6.827,4.13-9.611c2.566-2.637,5.834-4.116,8.517-3.905c0.071,0.007,5.616,0.553,8.73,1.391l8.616-6.207
				l-8.991-4.861c-0.769,0.24-1.697,0.591-2.663,0.957c-2.894,1.094-6.171,2.336-9.283,2.336c-3.814,0-5.847-1.937-6.876-3.561
				c-0.358-0.565-0.75-1.149-1.149-1.747c-2.227-3.33-4.748-7.106-4.536-11.073c0.33-6.162,6.563-10.586,10.25-12.678
				c6.02-3.399,18.467-0.171,20.131,9.034c0.076,0.42,0.387,2.186,0.503,3.912l7.074,3.479l-0.226-5.134
				c-3.741-4.786-8.79-13.126-4.909-19.599c3.313-5.526,9.288-9.096,15.22-9.096c3.81,0,7.429,1.429,10.472,4.135
				c3.712,3.297,5.661,7.479,5.483,11.771c-0.026,0.582-0.09,1.161-0.192,1.73c0.066-0.102,0.13-0.204,0.195-0.309
				c3.223-5.224,9.565-6.401,19.041-3.292c2.941,0.963,5.077,2.886,6.181,5.557c2.855,6.915-1.935,16.682-2.49,17.774
				c-0.119,0.23-0.273,0.441-0.458,0.624c-0.211,0.209-5.253,5.129-11.161,5.129c-1.927,0-3.715-0.503-5.338-1.502l-6.813,4.517
				l7.29,3.586c1.849-1.87,3.988-2.751,6.599-2.751c1.042,0,2.03,0.133,2.981,0.261c0.603,0.081,1.208,0.166,1.818,0.204
				l0.498,0.028c4.823,0.268,10.041,1.604,10.914,14.156c0.273,3.943-3.288,10.983-5.217,12.913
				c-1.944,1.939-8.272,2.364-13.24,2.381c-0.002,0-0.005,0-0.007,0c-0.245,0-0.487-0.038-0.722-0.109
				c-4.199-1.305-11.41-5.58-10.957-12.858l-7.256-3.926v9.834c6.193,1.828,7.857,6.637,7.306,10.482
				c-0.76,5.326-3.872,13.342-8.412,14.477C65.798,126.557,62.591,126.619,61.316,126.619z M51.457,115.411
				c1.941,2.836,4.253,5.55,5.084,5.939c0.586,0.195,2.324,0.408,4.775,0.408c2.246,0,4.373-0.183,5.547-0.477
				c1.142-0.297,4.007-5.022,4.78-10.449c0.409-2.846-1.531-4.835-5.319-5.462c-1.172-0.192-2.034-1.208-2.034-2.397V87.124
				c0-0.857,0.451-1.649,1.187-2.089c0.733-0.437,1.645-0.458,2.4-0.05l12.333,6.672c0.964,0.522,1.46,1.621,1.213,2.687
				c-1.275,5.495,5.48,8.31,7.062,8.887c4.251-0.042,8.652-0.534,9.554-1.078c1.161-1.18,3.81-6.872,3.66-9.015
				c-0.646-9.324-3.28-9.471-6.331-9.64l-0.539-0.031c-0.724-0.047-1.446-0.143-2.16-0.237c-0.831-0.114-1.617-0.218-2.331-0.218
				c-1.118,0-2.44,0.18-4.004,2.335c-0.698,0.957-1.975,1.272-3.041,0.752l-12.784-6.29c-0.781-0.385-1.296-1.156-1.353-2.025
				c-0.055-0.869,0.356-1.702,1.083-2.181l11.749-7.792c0.907-0.605,2.118-0.527,2.941,0.192c1.108,0.969,2.309,1.436,3.672,1.436
				c3.29,0,6.522-2.635,7.47-3.475c1.298-2.72,3.767-9.419,2.144-13.34c-0.567-1.375-1.586-2.26-3.2-2.789
				c-2.97-0.973-5.533-1.467-7.62-1.467c-3.681,0-5.056,1.536-5.77,2.691c-0.38,0.617-0.802,1.21-1.225,1.797
				c-1.657,2.307-2.57,3.577-1.104,6.589c0.518,1.063,0.195,2.345-0.767,3.036l-10.39,7.482c-0.738,0.536-1.718,0.61-2.528,0.19
				c-0.812-0.416-1.322-1.251-1.322-2.163V57.594c0-0.952,0.556-1.816,1.422-2.212c1.229-0.561,2.31-1.187,3.214-1.868
				c2.281-1.709,3.594-4.062,3.701-6.627c0.116-2.806-1.251-5.625-3.855-7.935c-2.169-1.93-4.604-2.908-7.242-2.908
				c-4.258,0-8.597,2.645-11.052,6.736c-2.706,4.513,3.162,12.372,5.025,14.674c0.328,0.404,0.515,0.902,0.539,1.422l0.437,10.021
				c0.038,0.859-0.38,1.673-1.099,2.141c-0.717,0.47-1.63,0.524-2.402,0.147l-12.072-5.941c-0.859-0.422-1.391-1.311-1.355-2.267
				c0.038-1.123-0.213-3.114-0.465-4.488c-0.729-4.021-5.44-6.421-9.578-6.421c-1.322,0-2.521,0.266-3.373,0.748
				c-4.731,2.682-7.643,5.936-7.791,8.706c-0.128,2.353,1.918,5.415,3.722,8.113c0.423,0.634,0.833,1.249,1.211,1.842
				c0.408,0.646,1.059,1.306,2.772,1.306c2.222,0,5.061-1.073,7.562-2.022c1.517-0.572,2.948-1.116,4.168-1.381
				c0.567-0.126,1.163-0.041,1.676,0.235L52.71,76.78c0.736,0.399,1.215,1.146,1.27,1.982c0.055,0.835-0.325,1.64-1.004,2.129
				l-12.775,9.203c-0.776,0.555-1.809,0.61-2.637,0.133c-0.949-0.416-6.511-1.204-8.315-1.351c-0.002,0-0.007,0-0.012,0
				c-1.429,0-3.183,0.961-4.631,2.45c-1.775,1.823-2.803,4.099-2.751,6.091c0.263,10.102,4.173,12.172,9.959,12.172l0.273-0.002
				c7.824-0.102,8.963-4.738,9.72-11.277c0.154-1.353,0.29-2.521,0.57-3.518c0.157-0.56,0.51-1.047,0.997-1.367l10.188-6.758
				c0.733-0.486,1.668-0.534,2.445-0.143c0.783,0.399,1.289,1.187,1.327,2.061l0.608,13.959c0.05,1.163-0.729,2.198-1.859,2.471
				C50.747,106.296,51.226,113.483,51.457,115.411z M69.152,59.104v4.145l5.004-3.604c-0.458-1.486-0.534-2.798-0.377-3.969
				c-0.584,0.62-1.229,1.199-1.935,1.726C71.037,58.009,70.135,58.579,69.152,59.104z"/>
		</g>
		<g>
			<path fill="#D4DAEF" d="M108.891,95.484c-1.059-12.013-5.73-11.591-9.361-11.754c-3.655-0.164-7.199-1.74-10.563,3.079
				l-12.9-6.05l11.602-8.014c6.639,5.581,14.674-2.666,14.674-2.666s8.056-16.582-2.651-19.875
				c-10.254-3.15-14.317-0.567-16.169,2.563c-1.861,3.145-4.918,5.533-2.246,10.767l-10.25,7.674l-0.194-10.396
				c1.282-0.615,2.523-1.341,3.627-2.203c5.78-4.508,6.361-12.585-0.342-18.325c-7.738-6.622-17.648-2.604-21.909,4.807
				c-3.299,5.744,2.682,13.943,5.545,17.354l0.624,10.012l-12.184-5.716c0.026-1.419-0.318-3.631-0.594-5.001
				c-1.438-7.19-11.716-9.972-16.675-7.041c-4.619,2.734-8.673,6.627-8.82,10.862c-0.13,3.803,3.288,7.909,5.519,11.284
				c3.656,5.526,12.728-0.313,17.057-1.348l13.382,6.921l-12.599,9.438c-1.244-0.691-7.966-1.41-9.361-1.493
				c-4.183-0.254-10.074,5.455-9.815,11.21c0.453,10.176,4.422,14.565,12.964,14.296c13.024-0.413,11.164-12.487,12.286-16.798
				l10.062-6.948l0.869,13.945c-8.396,2.188-6.131,13.772-6.131,13.772s4.522,6.518,6.734,7.209
				c2.209,0.693,8.809,0.569,11.726-0.219c2.919-0.788,5.73-7.441,6.366-12.585c0.448-3.631-1.671-7.216-7.484-8.063L71.383,90.34
				l12.457,6.438c-1.804,8.488,9.252,11.7,9.252,11.7s9.884-0.216,11.493-1.885C106.195,104.922,109.157,98.496,108.891,95.484z"/>
		</g>
		<g>
			<path fill="#FFFFFF" d="M449.405,90.777c2.865-10.534-1.231-11.645-4.268-12.92c-3.053-1.284-5.568-3.736-9.936-0.7l-9.063-9.184
				l12.368-3.169c3.891,6.824,13.303,2.336,13.303,2.336s12.041-11.56,3.976-17.71c-7.72-5.891-11.984-4.975-14.536-2.896
				c-2.568,2.091-5.915,3.159-5.286,8.443l-11.113,3.307l3.095-8.889c1.284-0.124,2.563-0.354,3.771-0.738
				c6.324-2.015,9.351-8.697,5.455-15.673c-4.498-8.054-14.176-7.743-20.116-2.782c-4.605,3.84-2.094,12.685-0.729,16.475
				l-2.61,8.702l-8.56-8.673c0.47-1.201,0.869-3.186,1.063-4.437c1.035-6.556-6.824-12.144-11.956-11.208
				c-4.78,0.874-9.444,2.908-10.897,6.461c-1.303,3.19,0.313,7.75,1.153,11.315c1.372,5.842,10.905,3.727,14.909,4.204l9.198,10.074
				l-13.66,4.066c-0.846-0.974-6.328-3.691-7.484-4.199c-3.476-1.531-10.269,1.474-11.854,6.447
				c-2.801,8.785-0.812,13.758,6.532,16.205c11.194,3.736,13.397-7.109,15.702-10.418l10.727-2.747l-3.635,12.12
				c-7.818-0.774-9.527,9.777-9.527,9.777s1.799,6.952,3.461,8.234c1.664,1.282,7.304,3.245,10.031,3.489
				c2.725,0.247,7.196-4.524,9.352-8.694c1.52-2.943,0.845-6.648-3.828-9.196l4.716-13.553l8.562,9.378
				c-4.191,6.641,4.192,12.834,4.192,12.834s8.464,2.917,10.355,2.006C444.157,97.95,448.687,93.417,449.405,90.777z"/>
			<path d="M409.125,108.53c-0.073,0-0.354-0.012-0.425-0.019c-2.96-0.266-9.089-2.284-11.296-3.985
				c-2.021-1.56-3.58-6.653-4.33-9.549c-0.085-0.328-0.1-0.667-0.047-0.999c0.075-0.465,1.88-11.011,10.116-11.812l1.882-6.276
				l-5.595,1.434c-0.228,0.43-0.479,0.95-0.737,1.486c-1.812,3.75-4.84,10.028-12.234,10.028c-1.578,0-3.282-0.304-5.067-0.899
				c-8.647-2.882-11.289-9.177-8.08-19.248c1.683-5.274,7.564-8.54,12.051-8.54c1.142,0,2.187,0.204,3.101,0.607
				c0.052,0.024,4.52,2.08,6.995,3.741l8.761-2.608l-5.927-6.49c-0.731-0.021-1.563,0.007-2.445,0.029
				c-0.778,0.021-1.593,0.042-2.419,0.042c-2.691,0-9.846,0-11.274-6.079c-0.135-0.579-0.294-1.189-0.458-1.813
				c-0.924-3.549-1.97-7.574-0.579-10.976c2.157-5.277,8.89-7.235,12.711-7.933c3.928-0.719,8.905,1.401,11.994,5.016
				c2.293,2.685,3.287,5.868,2.798,8.963c-0.057,0.375-0.309,1.911-0.705,3.392l4.652,4.711l1.206-4.019
				c-1.79-5.27-3.601-13.957,1.726-18.398c3.119-2.604,7.156-4.099,11.078-4.099c5.397,0,10.033,2.756,12.718,7.562
				c2.227,3.988,2.651,8.215,1.196,11.899c-0.073,0.18-0.149,0.358-0.228,0.536c4.327-3.076,10.009-2.07,16.997,3.264
				c2.283,1.74,3.57,4.078,3.722,6.76c0.392,6.862-6.682,13.86-7.488,14.636c-0.188,0.178-0.401,0.328-0.637,0.439
				c-0.145,0.069-3.579,1.685-7.422,1.685c-3.34,0-6.056-1.182-7.952-3.442l-6.641,1.702l4.771,4.835
				c1.206-0.567,2.399-0.845,3.612-0.845c2.146,0,3.862,0.871,5.374,1.638c0.487,0.247,0.976,0.499,1.481,0.709l0.411,0.171
				c4.14,1.7,8.3,4.448,5.26,15.628c-0.954,3.506-6.167,8.545-8.424,9.637c-0.587,0.282-1.289,0.417-2.148,0.417l0,0
				c-3.25,0-9.371-2.077-10.06-2.314c-0.232-0.081-0.453-0.197-0.65-0.342c-3.232-2.388-8.16-8.227-5.678-14.392l-4.679-5.125
				l-2.741,7.883c4.729,3.478,4.7,8.149,3.06,11.33C418.28,102.671,413.353,108.53,409.125,108.53z M397.922,94.29
				c0.797,2.915,1.93,5.839,2.509,6.435c1.144,0.876,6.313,2.728,8.699,2.943c1.09-0.01,4.778-3.128,6.98-7.389
				c1.145-2.215,0.138-4.327-2.831-5.946c-1.045-0.57-1.524-1.809-1.133-2.934l4.717-13.553c0.28-0.807,0.968-1.408,1.806-1.581
				c0.851-0.168,1.707,0.112,2.284,0.743l8.562,9.378c0.738,0.807,0.845,2.011,0.261,2.937c-2.61,4.135,2.077,8.362,3.31,9.366
				c2.373,0.793,6.354,1.92,8.094,1.92c0.093,0,0.176,0,0.247-0.012c1.218-0.615,5.148-4.671,5.635-6.458
				c2.167-7.973,0.145-8.804-2.416-9.855l-0.446-0.185c-0.615-0.259-1.209-0.555-1.797-0.854c-2.12-1.073-3.587-1.64-5.813-0.09
				c-0.966,0.674-2.283,0.553-3.116-0.29l-9.063-9.184c-0.61-0.619-0.846-1.517-0.612-2.357c0.232-0.838,0.896-1.488,1.739-1.704
				l12.369-3.169c1.052-0.28,2.172,0.2,2.716,1.151c0.994,1.745,2.522,2.556,4.813,2.556c2.136,0,4.199-0.743,4.989-1.065
				c1.911-1.939,5.92-6.832,5.704-10.563c-0.074-1.27-0.65-2.276-1.816-3.166c-3.418-2.609-6.396-3.985-8.616-3.985
				c-1.113,0-2.039,0.33-2.91,1.042c-0.515,0.42-1.059,0.802-1.597,1.182c-2.099,1.474-3.152,2.215-2.811,5.089
				c0.14,1.175-0.587,2.279-1.721,2.616l-11.114,3.307c-0.871,0.266-1.82,0.012-2.449-0.65c-0.631-0.66-0.838-1.617-0.539-2.478
				l3.096-8.89c0.311-0.895,1.118-1.528,2.063-1.619c1.211-0.116,2.31-0.33,3.267-0.636c2.388-0.759,4.16-2.333,4.989-4.432
				c0.909-2.3,0.584-5.048-0.919-7.74c-1.825-3.269-4.835-5.07-8.474-5.07c-2.801,0-5.704,1.083-7.964,2.97
				c-2.813,2.348-1.844,8.661,0,13.786c0.178,0.489,0.192,1.023,0.043,1.521l-2.611,8.702c-0.247,0.824-0.909,1.455-1.742,1.662
				c-0.838,0.204-1.714-0.041-2.316-0.653l-8.56-8.673c-0.674-0.684-0.883-1.7-0.534-2.592c0.361-0.917,0.731-2.678,0.926-3.924
				c0.34-2.144-0.733-3.931-1.692-5.053c-1.941-2.272-5.132-3.793-7.425-3.392c-4.766,0.871-8.163,2.737-9.084,4.989
				c-0.778,1.906,0.053,5.099,0.783,7.916c0.174,0.663,0.342,1.306,0.487,1.923c0.271,1.153,1.258,2.331,6.541,2.331
				c0.781,0,1.553-0.021,2.286-0.04c1.555-0.041,2.943-0.069,4.002,0.057c0.579,0.069,1.116,0.344,1.508,0.776l9.197,10.074
				c0.565,0.617,0.771,1.481,0.549,2.288c-0.226,0.807-0.848,1.441-1.65,1.678l-13.66,4.066c-0.911,0.278-1.903-0.014-2.527-0.736
				c-0.658-0.586-5.032-2.865-6.628-3.567c-0.292-0.128-0.686-0.195-1.142-0.195c-2.725,0-6.478,2.205-7.417,5.156
				c-2.761,8.657-0.141,11.453,4.984,13.162c1.289,0.43,2.476,0.648,3.529,0.648c4.023,0,5.865-3.154,7.854-7.28
				c0.541-1.118,1.007-2.086,1.555-2.87c0.332-0.479,0.826-0.821,1.391-0.966l10.727-2.746c0.843-0.223,1.75,0.038,2.357,0.672
				c0.605,0.631,0.826,1.541,0.574,2.38l-3.634,12.12c-0.335,1.116-1.437,1.806-2.568,1.721
				C399.986,86.533,398.322,92.534,397.922,94.29z M429.747,51.612l-1.04,2.988l4.762-1.417c0.055-1.089,0.273-2.025,0.601-2.836
				c-0.52,0.24-1.056,0.449-1.614,0.626C431.615,51.24,430.709,51.453,429.747,51.612z"/>
		</g>
		<g>
			<path fill="#D4DAEF" d="M452.269,94.974c2.867-10.537-1.232-11.643-4.269-12.917c-3.052-1.289-5.57-3.736-9.936-0.698
				l-9.063-9.184l12.366-3.171c3.896,6.824,13.302,2.335,13.302,2.335s12.042-11.56,3.979-17.709
				c-7.722-5.889-11.982-4.973-14.536-2.896c-2.57,2.091-5.915,3.16-5.286,8.443l-11.111,3.309l3.096-8.896
				c1.282-0.121,2.563-0.349,3.77-0.731c6.323-2.018,9.352-8.699,5.454-15.675c-4.498-8.054-14.175-7.745-20.116-2.785
				c-4.604,3.843-2.096,12.688-0.729,16.48l-2.608,8.699l-8.56-8.673c0.465-1.199,0.864-3.185,1.061-4.436
				c1.035-6.559-6.824-12.144-11.956-11.206c-4.777,0.871-9.444,2.905-10.897,6.458c-1.301,3.19,0.313,7.752,1.154,11.315
				c1.372,5.839,10.906,3.727,14.908,4.204l9.2,10.074l-13.665,4.068c-0.84-0.978-6.325-3.691-7.481-4.204
				c-3.473-1.529-10.269,1.476-11.854,6.447c-2.804,8.787-0.81,13.757,6.532,16.207c11.193,3.736,13.398-7.106,15.704-10.418
				l10.724-2.746l-3.637,12.12c-7.813-0.774-9.522,9.777-9.522,9.777s1.797,6.953,3.461,8.232c1.661,1.282,7.304,3.245,10.03,3.489
				c2.726,0.247,7.194-4.52,9.353-8.692c1.519-2.943,0.843-6.651-3.829-9.195l4.715-13.551l8.562,9.376
				c-4.194,6.642,4.189,12.836,4.189,12.836s8.464,2.915,10.358,2.003C447.022,102.149,451.549,97.618,452.269,94.974z"/>
		</g>
		<g>
			<g>
				<path fill="#FFFFFF" d="M111.094,277.53c2.34-1.604,9.993-9.139,14.351-12.621c-12.167-12.416-27.857-23.107-40.532-35.555
					c-5.203-5.113-15.723-16.981-22.241-19.592c-8.263-3.307-14.095,4.641-15.274,10.38c9.45,5.464,13.048,9.44,20.057,17.439
					c13.832,15.79,21.261,19.435,36.359,32.569L111.094,277.53z"/>
				<path d="M111.094,279.961c-0.632,0-1.258-0.247-1.73-0.725l-7.28-7.379c-4.716-4.093-8.683-7.257-12.519-10.316
					c-7.75-6.181-14.443-11.52-23.938-22.357c-7.192-8.208-10.47-11.748-19.447-16.938c-0.904-0.522-1.374-1.566-1.163-2.592
					c1.306-6.35,6.594-13.1,13.824-13.1c1.562,0,3.155,0.32,4.733,0.952C69.28,209.791,77.208,217.968,83,223.94
					c1.365,1.408,2.595,2.675,3.618,3.682c5.984,5.875,12.792,11.474,19.376,16.886c7.249,5.963,14.747,12.127,21.187,18.699
					c0.482,0.492,0.733,1.163,0.691,1.85c-0.041,0.686-0.373,1.322-0.909,1.752c-2.084,1.666-5.063,4.394-7.691,6.8
					c-2.938,2.692-5.476,5.016-6.803,5.927C112.051,279.82,111.571,279.961,111.094,279.961z M50.246,219.001
					c8.434,5.082,12.091,9.053,19.036,16.979c9.21,10.513,15.434,15.476,23.314,21.762c3.696,2.948,7.885,6.287,12.813,10.574
					l5.875,5.948c1.282-1.106,3.012-2.689,4.705-4.239c1.999-1.83,4.047-3.708,5.858-5.274c-5.837-5.711-12.488-11.18-18.942-16.486
					c-6.665-5.481-13.558-11.147-19.694-17.174c-1.047-1.028-2.305-2.326-3.701-3.765c-5.177-5.338-13-13.406-17.743-15.305
					c-1.001-0.401-1.987-0.605-2.927-0.605C54.63,211.415,51.516,215.495,50.246,219.001z"/>
			</g>
			<g>
				<path fill="#E5BFA4" d="M119.35,276.381c2.34-1.604,9.993-9.139,14.355-12.62c-12.172-12.417-27.861-23.107-40.537-35.555
					c-5.203-5.111-15.718-16.981-22.241-19.59c-8.263-3.307-14.095,4.641-15.272,10.38c9.45,5.462,13.048,9.438,20.057,17.437
					c13.834,15.79,21.261,19.436,36.359,32.569L119.35,276.381z"/>
			</g>
			<g>
				<path fill="#FFFFFF" d="M86.323,212.108c-1.673-9.001-1.434-20.064-9.471-26.658c-12.391-10.167-15.346,7.068-8.078,15.927
					c-8.504-7.375-15.206-21.581-26.003-24.904c-12.946-3.981-35.358,8.559-36.711,23.01c-1.707,18.234,22.333,30.568,35.379,37.876
					c11.78,6.599,11.894,4.767,20.349-4.313c7.306-7.848,8.849-7.608,17.456-14.05L86.323,212.108z"/>
				<path d="M51.302,243.736L51.302,243.736c-2.9,0-6.122-1.495-11.049-4.258l-2.075-1.153
					c-13.577-7.551-36.305-20.186-34.539-39.068c1.31-13.983,19.666-25.963,33.774-25.963c2.184,0,4.228,0.288,6.072,0.855
					c7.605,2.34,13.083,9.212,18.381,15.855c0.188,0.235,0.373,0.47,0.56,0.703c-0.064-2.335,0.318-4.56,1.192-6.409
					c1.319-2.792,3.703-4.391,6.535-4.391c2.504,0,5.276,1.232,8.241,3.663c7.18,5.894,8.405,14.804,9.487,22.666
					c0.254,1.854,0.505,3.682,0.831,5.429c0.147,0.797-0.111,1.619-0.695,2.186l-7.078,6.888c-0.074,0.074-0.154,0.14-0.237,0.204
					c-2.713,2.03-4.781,3.437-6.44,4.569c-3.767,2.563-5.839,3.976-10.695,9.191l-1.88,2.041
					C57.692,241.104,55.28,243.736,51.302,243.736z M37.414,178.155c-11.752,0-27.895,10.454-28.932,21.553
					C7.01,215.433,28,227.102,40.542,234.076l2.084,1.163c3.9,2.182,6.865,3.637,8.676,3.637c1.768,0,3.271-1.564,6.8-5.415
					l1.909-2.072c5.224-5.613,7.726-7.315,11.514-9.896c1.678-1.144,3.575-2.436,6.138-4.349l6.043-5.882
					c-0.235-1.422-0.437-2.884-0.641-4.365c-1.006-7.318-2.048-14.885-7.757-19.568c-2.715-2.229-4.396-2.561-5.155-2.561
					c-0.377,0-1.379,0-2.141,1.609c-1.453,3.072-0.727,9.354,2.642,13.457c0.8,0.978,0.719,2.404-0.185,3.285
					c-0.907,0.883-2.335,0.918-3.288,0.095c-3.247-2.817-6.23-6.561-9.117-10.178c-4.837-6.067-9.838-12.34-16.007-14.239
					C40.675,178.372,39.114,178.155,37.414,178.155z"/>
			</g>
			<g>
				<path fill="#D4DAEF" d="M96.938,213.257c-1.671-9.003-1.434-20.067-9.468-26.658c-12.393-10.167-15.348,7.068-8.078,15.927
					c-8.507-7.375-15.206-21.583-26.005-24.904c-12.946-3.983-35.355,8.557-36.71,23.01c-1.705,18.234,22.336,30.568,35.379,37.876
					c11.78,6.598,11.894,4.764,20.349-4.313c7.306-7.85,8.851-7.61,17.458-14.052L96.938,213.257z"/>
			</g>
		</g>
		<g>
			<path fill="#FFFFFF" d="M368.315,277.53c-2.341-1.604-9.993-9.139-14.354-12.621c12.172-12.416,27.861-23.107,40.534-35.555
				c5.203-5.113,15.721-16.981,22.241-19.592c8.263-3.307,14.095,4.641,15.274,10.38c-9.452,5.464-13.051,9.44-20.06,17.439
				c-13.831,15.79-21.259,19.435-36.357,32.569L368.315,277.53z"/>
			<path d="M368.315,279.961c-0.478,0-0.957-0.141-1.375-0.426c-1.326-0.911-3.859-3.23-6.795-5.917
				c-2.63-2.411-5.614-5.144-7.7-6.81c-0.537-0.43-0.869-1.066-0.909-1.752c-0.043-0.687,0.209-1.357,0.69-1.85
				c6.439-6.567,13.931-12.729,21.178-18.688c6.589-5.417,13.401-11.018,19.388-16.9c1.023-1.004,2.255-2.274,3.62-3.682
				c5.789-5.97,13.717-14.147,19.421-16.433c1.581-0.631,3.174-0.952,4.735-0.952c7.23,0,12.519,6.75,13.824,13.1
				c0.211,1.025-0.259,2.07-1.166,2.594c-8.977,5.188-12.255,8.728-19.447,16.936c-9.494,10.84-16.188,16.178-23.938,22.36
				c-3.836,3.06-7.803,6.224-12.651,10.441l-7.145,7.251C369.575,279.714,368.946,279.961,368.315,279.961z M357.561,264.75
				c1.815,1.569,3.866,3.447,5.87,5.281c1.688,1.548,3.413,3.129,4.692,4.232l5.741-5.82c5.063-4.412,9.251-7.754,12.946-10.7
				c7.881-6.285,14.104-11.249,23.313-21.764c6.945-7.926,10.604-11.899,19.039-16.979c-1.272-3.506-4.384-7.586-8.595-7.586
				c-0.94,0-1.925,0.205-2.929,0.605c-4.743,1.899-12.562,9.964-17.738,15.303c-1.396,1.441-2.656,2.737-3.701,3.765
				c-6.141,6.031-13.038,11.705-19.708,17.188C370.043,253.577,363.395,259.044,357.561,264.75z"/>
		</g>
		<g>
			<path fill="#E5BFA4" d="M365.711,286.939c-2.278-1.692-9.653-9.5-13.881-13.139c12.613-11.963,28.684-22.074,41.805-34.052
				c5.384-4.918,16.326-16.399,22.941-18.769c8.376-3.002,13.911,5.151,14.88,10.928c-9.642,5.115-13.38,8.958-20.677,16.697
				c-14.4,15.273-21.958,18.649-37.522,31.222L365.711,286.939z"/>
		</g>
		<g>
			<path fill="#FFFFFF" d="M393.086,212.108c1.674-9.001,1.437-20.064,9.469-26.658c12.393-10.167,15.348,7.068,8.08,15.927
				c8.505-7.375,15.205-21.581,26.003-24.904c12.943-3.981,35.355,8.559,36.711,23.01c1.706,18.234-22.331,30.568-35.379,37.876
				c-11.78,6.599-11.895,4.767-20.347-4.313c-7.309-7.848-8.854-7.608-17.458-14.05L393.086,212.108z"/>
			<path d="M428.107,243.736c-3.979,0-6.391-2.633-10.383-6.993l-1.88-2.041c-4.854-5.213-6.929-6.625-10.69-9.188
				c-1.664-1.13-3.731-2.54-6.447-4.572c-0.083-0.064-0.164-0.13-0.237-0.204l-7.078-6.888c-0.584-0.567-0.843-1.389-0.695-2.186
				c0.325-1.747,0.577-3.572,0.831-5.429c1.082-7.861,2.31-16.772,9.484-22.663c2.965-2.433,5.739-3.665,8.244-3.665
				c2.831,0,5.212,1.6,6.534,4.394c0.874,1.847,1.256,4.071,1.191,6.406c0.188-0.232,0.373-0.467,0.561-0.703
				c5.298-6.644,10.776-13.515,18.382-15.855c1.844-0.567,3.885-0.855,6.071-0.855c14.106,0,32.462,11.98,33.774,25.961
				c1.766,18.887-20.964,31.524-34.546,39.072l-2.067,1.151C434.229,242.241,431.008,243.736,428.107,243.736z M401.748,217.145
				c2.563,1.916,4.462,3.209,6.141,4.354c3.785,2.578,6.287,4.282,11.512,9.891l1.908,2.07c3.527,3.853,5.03,5.417,6.799,5.417
				c1.811,0,4.775-1.455,8.675-3.637l2.08-1.161c12.544-6.974,33.539-18.643,32.065-34.37c-1.04-11.099-17.181-21.553-28.933-21.553
				c-1.699,0-3.262,0.216-4.643,0.641c-6.169,1.899-11.171,8.172-16.008,14.239c-2.887,3.618-5.87,7.361-9.117,10.178
				c-0.952,0.824-2.384,0.788-3.288-0.095c-0.904-0.881-0.984-2.308-0.185-3.285c3.368-4.102,4.095-10.385,2.642-13.457
				c-0.762-1.609-1.764-1.609-2.141-1.609c-0.762,0-2.442,0.332-5.16,2.561c-5.704,4.683-6.746,12.25-7.753,19.568
				c-0.204,1.481-0.405,2.943-0.641,4.365L401.748,217.145z"/>
		</g>
		<g>
			<path fill="#D4DAEF" d="M391.652,217.847c1.672-9.003,1.434-20.064,9.469-26.658c12.396-10.166,15.348,7.069,8.08,15.927
				c8.505-7.375,15.205-21.583,26.003-24.904c12.946-3.983,35.355,8.557,36.708,23.01c1.709,18.234-22.331,30.567-35.376,37.875
				c-11.78,6.599-11.893,4.767-20.35-4.313c-7.306-7.85-8.852-7.61-17.458-14.052L391.652,217.847z"/>
		</g>
	</g>
</g>
</svg>
