<?xml version="1.0" encoding="utf-8"?>
<!-- Generator: Adobe Illustrator 16.0.0, SVG Export Plug-In . SVG Version: 6.00 Build 0)  -->
<!DOCTYPE svg PUBLIC "-//W3C//DTD SVG 1.1//EN" "http://www.w3.org/Graphics/SVG/1.1/DTD/svg11.dtd">
<svg version="1.1" id="Layer_1" xmlns="http://www.w3.org/2000/svg" xmlns:xlink="http://www.w3.org/1999/xlink" x="0px" y="0px"
	 width="480px" height="480px" viewBox="0 0 480 480" enable-background="new 0 0 480 480" xml:space="preserve">
<g>
	<g>
		<g>
			<path fill="#FFFFFF" d="M45.677,195.991c-24.853,5.892-7.796,41.975,6.953,53.769c16.862,13.477,76.948,23.002,79.156-6.943
				c-8.267,2.198-7.626,12.248-4.638,19.971c6.855,17.711,30.288,23.746,48.493,25.093c38.875,2.874,92.701-9.263,85.389-40.561
				c13.518,54.543,153.788,37.051,129.812-8.346c27.828,17.034,69.729-22.25,69.175-44.564
				c-0.667-26.835-6.891-62.387-46.519-56.067c-0.859-34.749-15.948-52.015-32.883-61.431c-21.054-11.707-84.595-28.026-92.88,2.201
				c-10.789-42.08-55.992-44.224-87.002-31.588c-27.496,11.203-35.575,20.943-42.209,41.063
				c-37.042-34.748-93.893,6.317-85.28,26.851c0,0-30.278-1.051-46.515,11.847C3.156,146.003-3.865,182.35,45.677,195.991z"/>
			<path d="M186.996,290.628c-3.921,0-7.8-0.139-11.529-0.414c-15.459-1.143-42.581-6.116-50.499-26.581
				c-0.521-1.346-0.96-2.717-1.303-4.071c-7.385,4.37-17.118,5.362-24.429,5.362c0,0-0.002,0-0.005,0
				c-17.593,0-38.705-5.858-48.062-13.336c-10.348-8.275-23.248-29.788-19.91-44.663c1.044-4.649,3.587-8.248,7.469-10.638
				c-22.725-7.89-29.918-20.363-31.846-29.813c-2.817-13.812,4.4-29.913,18.388-41.022c13.637-10.83,36.334-12.24,44.918-12.363
				c-0.651-4.487,0.812-9.637,4.274-14.85c8.416-12.653,28.412-25.464,50.354-25.464c12.082,0,23.292,4.048,32.627,11.747
				c6.352-17.694,14.892-27.958,42.404-39.165c11.001-4.483,23.358-6.951,34.796-6.951c26.281,0,45.431,12.309,53.463,34.035
				c5.308-8.479,16.354-12.914,32.41-12.914c23.209,0,49.779,8.968,61.233,15.338c21.541,11.977,32.678,31.88,33.994,60.8
				c2.267-0.268,4.464-0.402,6.558-0.402c38.582,0,39.688,44.472,40.053,59.088c0.224,9.012-5.705,20.605-15.856,31.015
				c-12.289,12.592-27.433,20.112-40.52,20.112c-3.798,0-7.407-0.615-10.789-1.833c1.472,5.614,0.708,11.083-2.299,16.067
				c-8.468,14.052-35.521,23.865-65.784,23.865c-24.46,0-52.021-6.777-63.739-24.987c-0.83,3.356-2.429,6.532-4.788,9.505
				C245.388,284.727,211.773,290.628,186.996,290.628z M127.787,256.504c0.315,1.765,0.841,3.622,1.544,5.439
				c7.252,18.739,34.922,22.749,46.48,23.604c3.615,0.268,7.378,0.402,11.185,0.402c25.608,0,56.54-6.421,67.918-20.762
				c4.044-5.096,5.334-10.927,3.838-17.336c-0.293-1.252,0.479-2.506,1.729-2.809c1.249-0.294,2.51,0.467,2.82,1.715
				c5.872,23.698,36.812,32.141,63.807,32.141c28.707,0,54.111-8.881,61.777-21.602c3.18-5.273,3.138-11.069-0.115-17.232
				c-0.491-0.932-0.3-2.077,0.47-2.799c0.77-0.72,1.926-0.843,2.821-0.288c4.145,2.534,8.824,3.82,13.919,3.82
				c11.852,0,25.745-6.992,37.169-18.701c9.15-9.381,14.72-19.968,14.527-27.631c-1.016-40.93-15.336-58.356-43.81-53.815
				c-0.675,0.112-1.347-0.082-1.866-0.511c-0.52-0.432-0.824-1.064-0.843-1.741c-0.705-28.538-11.068-47.981-31.681-59.442
				c-12.755-7.094-38.923-14.749-58.959-14.749c-11.986,0-27.012,2.691-30.525,15.523c-0.28,1.023-1.307,1.718-2.276,1.72
				c-1.062-0.009-1.982-0.731-2.248-1.759c-8.166-31.851-35.347-36.605-50.824-36.605c-10.849,0-22.579,2.344-33.03,6.603
				c-27.655,11.269-34.697,20.911-40.871,39.631c-0.251,0.758-0.871,1.336-1.645,1.533c-0.773,0.206-1.595-0.014-2.178-0.56
				c-9.082-8.521-19.882-12.838-32.104-12.838c-20.08,0-38.92,12.044-46.456,23.376c-3.444,5.18-4.495,10.044-2.961,13.702
				c0.311,0.736,0.224,1.577-0.229,2.232c-0.455,0.658-1.261,1.078-2.006,1.01c-0.023,0-0.59-0.018-1.583-0.018
				c-6.825,0-30.13,0.819-43.4,11.36c-12.622,10.023-19.183,24.319-16.715,36.42c2.631,12.898,14.677,22.648,34.832,28.197
				c1.03,0.284,1.736,1.229,1.718,2.296c-0.021,1.069-0.761,1.988-1.801,2.235c-5.838,1.384-9.238,4.554-10.389,9.685
				c-2.678,11.916,7.805,31.615,18.264,39.98c8.637,6.904,28.465,12.313,45.14,12.313c0.002,0,0.005,0,0.005,0
				c10.272,0,18.39-1.972,23.593-5.717c-0.526-7.351,2.475-12.409,8.358-13.975c0.731-0.194,1.51-0.02,2.093,0.462
				c0.582,0.482,0.896,1.218,0.84,1.973C133.718,248.423,131.591,252.963,127.787,256.504z"/>
		</g>
		<g>
			<path fill="#B1B3B6" d="M60.32,210.029c-24.853,5.764-7.796,41.049,6.955,52.581c16.857,13.179,76.949,22.492,79.155-6.787
				c-8.271,2.146-7.626,11.977-4.638,19.53c6.854,17.316,30.283,23.218,48.489,24.536c38.878,2.811,92.706-9.059,85.394-39.664
				c13.517,53.339,153.788,36.229,129.806-8.162c27.829,16.656,69.733-21.758,69.176-43.578
				c-0.668-26.244-6.892-61.007-46.515-54.829c-0.859-33.98-15.952-50.863-32.883-60.071
				c-21.059-11.447-93.214-23.545-101.498,6.014c-10.784-41.15-50.627-45.416-90.447-30.119
				c-21.459,8.244-32.362,14.086-38.998,33.761c-48.004-28.355-85.763,21.584-76.432,28.019c0,0-30.274-1.029-46.515,11.584
				C17.799,161.147,10.78,196.689,60.32,210.029z"/>
		</g>
		<g>
			<path d="M197.92,191.293c-2.383,0-4.309-0.818-5.691-1.696c-3.99-2.534-6.777-7.813-6.932-13.137
				c-0.133-4.538,0.678-7.618,1.86-9.708c1.179-5.331,3.733-10.054,7.51-11.831c2.2-1.035,6.669-1.885,11.81,4.078
				c3.603,4.179,4.081,14.419,2.458,21.512c-1.165,5.098-3.324,8.461-6.244,9.729C200.95,190.996,199.353,191.293,197.92,191.293z
				 M195.016,170.56c-0.379,0-0.902,0.243-1.687,1.044c-1.375,1.41-0.628,5.159,1.355,8.187c-0.299-1.467-0.317-2.971-0.022-4.243
				c0.34-1.474,1.071-2.64,2.088-3.407c-0.294-0.498-0.626-0.918-0.985-1.227C195.574,170.752,195.352,170.56,195.016,170.56z
				 M202.316,173.464c0.378,1.353,0.609,2.776,0.673,4.167c0.385-2.358-0.424-4.389-1.174-5.682
				c0.089,0.233,0.174,0.468,0.253,0.708C202.177,172.918,202.259,173.188,202.316,173.464z M194.541,162.323
				c3.701,0,7.7,2.214,10.359,5.815c-0.356-2.794-1.065-5.038-1.965-6.083c-2.383-2.765-4.494-3.743-6.276-2.902
				c-1.138,0.535-2.164,1.679-3.019,3.215C193.938,162.34,194.239,162.323,194.541,162.323z"/>
		</g>
		<g>
			<g>
				<path d="M259.27,185.163c-1.98-0.009-3.49-3.848-4.077-6.288c-0.977-4.058-0.762-8.381,0.014-12.448
					c0.327-1.721,0.831-3.457,1.662-5.001c0.279-0.519,0.593-0.971,1.021-1.366c-2.131,1.972-4.339,0.07-2.69,1.279
					c4.014,2.946,5.392,8.434,5.936,13.086c0.571,4.885,0.014,10.816-2.802,14.984c-1.092,1.618,1.972,0.612,0.573,0.109
					c-1.369-0.494-2.474-1.503-3.529-2.458c-1.992-1.805-2.488-5.196-2.463-7.725c0.022-2.442,0.65-5.033,1.829-7.172
					c1.52-2.755-3.775-0.982-2.48,0.357c1.131,1.167,1.61,2.984,2.116,4.476c0.354,1.048,0.39,2.516,0.39,3.61
					c-0.445,2.399,1.203,1.967,4.942-1.3c-0.941-0.736-1.714-1.618-2.321-2.651c-1.856-3.304-0.202-8.237,2.337-10.67
					c-2.716,0.144-5.436,0.289-8.152,0.435c0.867,2.399,3.498,3.674,3.898,6.086c0.521,3.153,9.603,0.983,9.038-2.421
					c-0.464-2.797-2.992-3.583-3.897-6.086c-1.046-2.898-6.667-0.992-8.152,0.434c-3.449,3.309-5.026,7.43-4.779,12.188
					c0.232,4.481,5.195,8.863,9.66,8.315c8.63-1.061,8.159-12.444,2.262-16.916c-6.505-4.93-13.586,2.781-15.194,8.596
					c-2.166,7.832,1.417,16.058,9.625,18.05c7.684,1.867,13.512-4.359,15.396-11.04c2.103-7.444,1.119-16.52-3.235-22.95
					c-3.793-5.602-10.279-6.223-15.573-2.165c-4.421,3.388-5.101,10.971-5.121,16.025c-0.027,6.827,1.854,15.797,10.273,15.839
					c2.048,0.009,4.743-0.672,5.964-2.486C262.932,186.108,260.732,185.17,259.27,185.163L259.27,185.163z"/>
			</g>
		</g>
		<g>
			<g>
				<path d="M229.179,234.307c-21.409,0-36.969-4.96-46.309-14.78c-9.884-10.39-8.866-22.287-8.815-22.787
					c0.123-1.286,1.277-2.259,2.552-2.104c1.284,0.124,2.223,1.262,2.104,2.543l0,0c-0.037,0.42-0.818,10.396,7.622,19.202
					c9.363,9.77,26.042,14.173,49.581,13.088c23.648-1.092,39.307-6.681,45.286-16.163c4.953-7.855,1.709-15.761,1.571-16.095
					c-0.502-1.186,0.048-2.559,1.234-3.066c1.188-0.507,2.554,0.036,3.064,1.22c0.18,0.421,4.366,10.394-1.863,20.358
					c-6.899,11.038-23.41,17.235-49.078,18.42C233.749,234.252,231.432,234.307,229.179,234.307z"/>
			</g>
			<g>
				<path d="M182.957,195.292c0,3.006-2.436,5.447-5.447,5.447c-3.012,0-5.452-2.44-5.452-5.447c0-3.012,2.44-5.452,5.452-5.452
					C180.521,189.84,182.957,192.28,182.957,195.292z"/>
			</g>
			<g>
				<path d="M292.24,196.63c0,3.007-2.438,5.447-5.449,5.447c-3.012,0-5.45-2.44-5.45-5.447c0-3.011,2.438-5.452,5.45-5.452
					C289.802,191.179,292.24,193.619,292.24,196.63z"/>
			</g>
		</g>
		<g>
			<path fill="#F6978F" d="M113.835,199.022c-5.145,0-10.272-1.035-14.986-2.76c-4.494,0.679-8.406-0.093-11.211-2.152
				c-7.558-1.554-14.298-4.231-18.165-7.983c-6.677-6.476-5.565-12.853-2.298-16.66c4.3-5.012,14.179-7.661,24.389-7.037
				c11.904-2.399,25.315-0.245,32.741,5.579c4.583,3.594,6.818,8.314,6.47,13.65c-0.191,2.913-1.733,8.264-9.904,11.458
				c0.062,0.249,0.103,0.507,0.125,0.772c0.197,2.577-1.731,4.828-4.309,5.024C115.736,198.989,114.786,199.022,113.835,199.022z
				 M116.463,183.294c-0.007,0.032-0.014,0.064-0.022,0.096c-0.137,0.526-0.311,1.04-0.523,1.543
				c0.511-0.154,1.003-0.321,1.469-0.499c0.32-0.126,0.69-0.279,1.072-0.459c-0.578-0.322-1.195-0.605-1.849-0.856
				C116.564,183.177,116.514,183.234,116.463,183.294z M77.07,173.688c-1.236,0.544-2.195,1.177-2.792,1.872
				c-0.281,0.329-1.025,1.197,1.711,3.849c0.825,0.802,1.934,1.549,3.263,2.232c-0.077-0.13-0.152-0.26-0.226-0.391
				c-1.364-1.419-2.461-3.288-2.351-5.623C76.701,175.101,76.798,174.427,77.07,173.688z"/>
		</g>
		<g>
			<path fill="#F6978F" d="M368.441,196.226c-8.25,0-15.273-2.71-19.972-7.721c-2.996-0.795-8.531-2.747-9.391-7.778
				c-0.422-2.479,0.244-6.189,5.826-9.772c0.064-0.041,0.126-0.08,0.19-0.121c0.349-0.583,0.749-1.149,1.203-1.698
				c8.002-9.671,31.088-11.428,44.871-6.436c8.823,3.196,13.667,8.89,13.64,16.03c-0.027,6.962-4.108,11.961-11.195,13.72
				c-2.738,0.679-5.937,0.855-9.311,0.604c-2.989,1.252-6.223,2.141-9.359,2.641C372.712,196.05,370.536,196.226,368.441,196.226z
				 M352.721,177.351c0.056,0.676,0.325,1.528,0.968,2.612c1.873,3.15,4.737,4.917,7.741,5.867c-3.25-2.013-5.776-4.312-7.06-6.715
				c-0.375-0.701-0.647-1.415-0.82-2.129C353.261,177.107,352.984,177.23,352.721,177.351z M366.002,177.655
				c3.293,2.024,8.515,4.234,13.88,5.393c-0.296-0.32-0.571-0.645-0.831-0.964c-0.882-1.09-1.194-2.456-0.975-3.739
				C374.612,177.993,370.208,177.813,366.002,177.655z"/>
		</g>
		<g>
			<polygon fill="#FFFFFF" points="334.391,317.334 268.88,399.222 322.692,371.146 303.975,441.337 367.146,345.41 
				320.354,359.448 			"/>
			<path d="M303.975,443.676c-0.322,0-0.648-0.065-0.957-0.205c-1.047-0.469-1.599-1.629-1.304-2.738l17.348-65.053l-49.099,25.617
				c-0.98,0.509-2.188,0.265-2.89-0.587c-0.702-0.855-0.712-2.086-0.021-2.95l65.512-81.889c0.708-0.886,1.951-1.136,2.946-0.594
				c0.994,0.544,1.459,1.721,1.103,2.797l-12.613,37.836l42.476-12.741c0.941-0.284,1.96,0.052,2.55,0.845
				c0.585,0.789,0.617,1.859,0.075,2.682l-63.172,95.927C305.482,443.299,304.74,443.676,303.975,443.676z M322.692,368.807
				c0.521,0,1.037,0.173,1.462,0.514c0.725,0.58,1.038,1.534,0.8,2.43l-15.002,56.26l51.697-78.508l-40.626,12.188
				c-0.83,0.251-1.74,0.017-2.35-0.612c-0.607-0.627-0.815-1.54-0.542-2.37l9.892-29.669l-50.376,62.972l43.963-22.938
				C321.953,368.895,322.322,368.807,322.692,368.807z"/>
		</g>
		<g>
			<path fill="#FFFFFF" d="M147.217,312.654l-65.511,72.53l44.454-9.359c0,0-39.774,51.473-46.793,60.831
				c-7.02,9.359,88.907-88.907,88.907-88.907l-35.095,2.34L147.217,312.654z"/>
			<path d="M79.028,439.625c-0.886,0-1.723-0.514-2.118-1.307c-0.686-1.371,0.171-2.516,0.585-3.064
				c5.643-7.526,32.737-42.633,42.93-55.829l-38.237,8.048c-0.994,0.213-2.003-0.241-2.511-1.124
				c-0.505-0.876-0.386-1.979,0.292-2.732l65.511-72.529c0.754-0.836,1.989-1.015,2.952-0.433c0.96,0.586,1.371,1.77,0.976,2.822
				l-12.766,34.038l31.477-2.101c0.964-0.057,1.873,0.476,2.28,1.354c0.407,0.883,0.226,1.923-0.453,2.614
				C81.848,439.625,80.285,439.625,79.028,439.625z M126.16,373.485c0.795,0,1.549,0.404,1.983,1.098
				c0.521,0.83,0.466,1.898-0.132,2.673c-0.247,0.316-15.427,19.967-28.615,37.101c17.611-17.645,42.758-43.227,62.928-63.864
				l-28.99,1.933c-0.786,0.034-1.558-0.302-2.033-0.939c-0.476-0.638-0.592-1.474-0.313-2.219l9.717-25.913l-52.439,58.059
				l37.412-7.876C125.84,373.502,126,373.485,126.16,373.485z"/>
		</g>
		<g>
			<path fill="#FFFFFF" d="M224.426,322.013c0,0-56.152,56.153-49.132,53.813c7.019-2.34,32.755-18.717,30.416-4.679
				c-1.924,11.538-25.736,70.19-25.736,70.19l84.229-100.606c0,0-42.115,9.358-46.794,9.358S224.426,322.013,224.426,322.013z"/>
			<path d="M179.973,443.676c-0.414,0-0.832-0.109-1.207-0.333c-0.987-0.595-1.394-1.818-0.962-2.887
				c0.238-0.584,23.737-58.542,25.597-69.693c0.238-1.436,0.076-2.239-0.158-2.514c-0.208-0.247-0.776-0.388-1.558-0.388
				c-4.316,0-12.384,3.954-18.274,6.84c-3.027,1.482-5.642,2.766-7.377,3.343c-1.579,0.53-2.957-0.096-3.487-1.377
				c-0.71-1.71-1.782-4.297,50.226-56.308c0.791-0.789,2.029-0.91,2.957-0.291c0.928,0.622,1.289,1.812,0.857,2.846
				c-3.967,9.52-7.802,20.939-7.967,24.732c6.183-0.779,29.598-5.761,45.076-9.201c0.979-0.207,1.986,0.215,2.506,1.07
				c0.521,0.856,0.436,1.948-0.206,2.715l-84.228,100.607C181.307,443.386,180.645,443.676,179.973,443.676z M201.686,363.182
				c2.255,0,3.982,0.688,5.129,2.043c1.247,1.475,1.654,3.596,1.202,6.306c-1.371,8.237-13.229,38.904-20.417,57.053l70.399-84.093
				c-12.348,2.7-36.813,7.939-40.592,7.939c-1.106,0-2.093-0.528-2.71-1.451c-1.757-2.637,0.356-10.727,3.455-19.335
				c-15.103,15.281-29.875,30.729-36.941,38.924c0.045-0.022,0.094-0.044,0.142-0.067
				C188.006,367.239,196.282,363.182,201.686,363.182z"/>
		</g>
		<g>
			<polygon fill="#FFF8A1" points="341.41,322.013 275.899,403.902 329.711,375.825 310.994,446.016 374.165,350.089 
				327.371,364.127 			"/>
		</g>
		<g>
			<path fill="#FFF8A1" d="M154.236,317.334l-65.51,72.529l44.453-9.358c0,0-39.774,51.473-46.793,60.832
				c-7.019,9.357,88.908-88.907,88.908-88.907l-35.095,2.338L154.236,317.334z"/>
		</g>
		<g>
			<path fill="#FFF8A1" d="M231.445,326.693c0,0-56.152,56.151-49.133,53.812c7.019-2.339,32.756-18.718,30.416-4.68
				c-1.924,11.538-25.736,70.19-25.736,70.19L271.22,345.41c0,0-42.114,9.357-46.794,9.357
				C219.747,354.768,231.445,326.693,231.445,326.693z"/>
		</g>
		<g>
			<path d="M254.888,152.898c-8.546,0-14.482-5.788-14.568-5.876c-0.914-0.914-0.914-2.395,0-3.308
				c0.912-0.912,2.39-0.914,3.304-0.007l0,0c0.417,0.414,10.414,10.012,22.587-0.138c13.641-11.365,19.942-19.323,20.004-19.402
				c0.798-1.015,2.269-1.188,3.284-0.397c1.019,0.797,1.196,2.267,0.401,3.283c-0.265,0.338-6.626,8.39-20.691,20.113
				C264.054,151.461,259.146,152.898,254.888,152.898z"/>
		</g>
		<g>
			<path d="M209.195,152.25c-3.722,0-10.042-0.587-17.213-3.726c-10.999-4.812-19.136-12.877-19.477-13.218
				c-0.914-0.912-0.914-2.393-0.002-3.306c0.914-0.918,2.395-0.914,3.308-0.004c0.078,0.077,7.88,7.793,18.044,12.242
				c9.979,4.369,18.057,3.192,18.137,3.181c1.266-0.197,2.472,0.678,2.669,1.956c0.196,1.277-0.678,2.472-1.957,2.668
				C212.568,152.063,211.293,152.25,209.195,152.25z"/>
		</g>
	</g>
</g>
</svg>
